<svg xmlns="http://www.w3.org/2000/svg" viewBox="508.9694 154.6442 28.3863 28.3863" width="24" height="24" fill="currentColor">
<path d="M531.2197 157.9502L534.0497 160.7802L534.9902 159.8398L532.1602 157.0098L531.2197 157.9502" fill="currentColor"/>
<path d="M523.6650 168.0433L523.6650 161.0000L522.3350 161.0000L522.3350 168.0433C522.0327 168.2537 521.8350 168.6038 521.8350 169.0000C521.8350 169.6434 522.3565 170.1650 523.0000 170.1650C523.6434 170.1650 524.1650 169.6434 524.1650 169.0000C524.1650 168.6038 523.9672 168.2537 523.6650 168.0433" fill="currentColor"/>
<path d="M514.5547 160.5547C516.6212 158.4882 519.5488 157.3350 523.0000 157.3350C526.4511 157.3350 529.3787 158.4882 531.4452 160.5547C533.5117 162.6212 534.6650 165.5488 534.6650 169.0000C534.6650 172.4511 533.5117 175.3787 531.4452 177.4452C529.3787 179.5117 526.4511 180.6650 523.0000 180.6650C519.5488 180.6650 516.6212 179.5117 514.5547 177.4452C512.4882 175.3787 511.3350 172.4511 511.3350 169.0000C511.3350 165.5488 512.4882 162.6212 514.5547 160.5547M515.4952 161.4952C513.7117 163.2787 512.6650 165.8511 512.6650 169.0000C512.6650 172.1488 513.7117 174.7212 515.4952 176.5047C517.2787 178.2882 519.8511 179.3350 523.0000 179.3350C526.1488 179.3350 528.7212 178.2882 530.5047 176.5047C532.2882 174.7212 533.3350 172.1488 533.3350 169.0000C533.3350 165.8511 532.2882 163.2787 530.5047 161.4952C528.7212 159.7117 526.1488 158.6650 523.0000 158.6650C519.8511 158.6650 517.2787 159.7117 515.4952 161.4952" fill="currentColor"/>
</svg>