<svg xmlns="http://www.w3.org/2000/svg" viewBox="236.6020 184.6020 32.7960 32.7960" width="24" height="24" fill="currentColor">
<path d="M259.3350 196.6650L259.3350 199.0000L260.6650 199.0000L260.6650 196.6650L263.0000 196.6650L263.0000 195.3350L260.6650 195.3350L260.6650 193.0000L259.3350 193.0000L259.3350 195.3350L257.0000 195.3350L257.0000 196.6650L259.3350 196.6650" fill="rgb(0,0,0)"/>
<path d="M249.0000 196.6650L243.0000 196.6650L243.0000 195.3350L249.0000 195.3350L249.0000 196.6650" fill="rgb(0,0,0)"/>
<path d="M248.6650 187.3350L243.3350 187.3350L243.3350 189.3350L239.3350 189.3350L239.3350 206.6650L266.6650 206.6650L266.6650 189.3350L262.6650 189.3350L262.6650 187.3350L257.3350 187.3350L257.3350 189.3350L248.6650 189.3350L248.6650 187.3350M244.6650 190.6650L244.6650 188.6650L247.3350 188.6650L247.3350 190.6650L258.6650 190.6650L258.6650 188.6650L261.3350 188.6650L261.3350 190.6650L265.3350 190.6650L265.3350 205.3350L240.6650 205.3350L240.6650 190.6650L244.6650 190.6650" fill="rgb(0,0,0)"/>
</svg>