<svg xmlns="http://www.w3.org/2000/svg" xmlns:xlink="http://www.w3.org/1999/xlink" width="44" height="44" viewBox="0 0 44 44">
<g id="Brochure">
        <path d="M32.775 11.0805C32.635 10.99 32.4575 10.9753 32.3025 11.0389L25.5 13.8891L18.6975 11.0389C18.6925 11.0365 18.685 11.0365 18.68 11.034C18.66 11.0267 18.64 11.0218 18.62 11.0169C18.6 11.012 18.58 11.0071 18.56 11.0047C18.54 11.0022 18.52 11.0022 18.5 11.0022C18.48 11.0022 18.46 11.0022 18.44 11.0047C18.42 11.0071 18.4 11.012 18.38 11.0169C18.36 11.0218 18.34 11.0267 18.32 11.034C18.315 11.0365 18.3075 11.0365 18.3025 11.0389L11.3025 13.9723C11.12 14.0505 11 14.2265 11 14.422V32.5111C11 32.6749 11.085 32.8289 11.225 32.9193C11.3075 32.9731 11.4025 33 11.5 33C11.5675 33 11.635 32.9878 11.6975 32.9609L18.5 30.1106L25.3025 32.9609C25.315 32.9658 25.3275 32.9682 25.34 32.9731C25.3525 32.978 25.3625 32.9804 25.375 32.9829C25.415 32.9927 25.4575 33 25.5 33C25.5425 33 25.585 32.9927 25.6275 32.9829C25.64 32.9804 25.65 32.9756 25.6625 32.9731C25.675 32.9682 25.6875 32.9658 25.7 32.9609L32.7 30.0275C32.88 29.9493 33 29.7733 33 29.5777V11.4887C33 11.3249 32.915 11.1709 32.775 11.0805ZM12 14.7447L18 12.2294V29.2551L12 31.7704V14.7447ZM19 12.2294L25 14.7447V31.7704L19 29.2551V12.2294ZM32 29.2551L26 31.7704V14.7447L32 12.2294V29.2551Z" fill="white"/>
    </g>
</svg>
