<svg xmlns="http://www.w3.org/2000/svg" viewBox="506.2005 425.3338 33.5936 33.5936" width="24" height="24" fill="currentColor">
<path d="M536.9947 433.3333L536.9947 432.0000C534.7993 432.0000 533.9467 432.0080 533.0613 432.6406C532.3773 431.3506 531.1660 429.3740 529.9080 428.8246C528.5827 428.2433 527.4847 428.1333 522.9974 428.1333C518.5100 428.1333 517.4120 428.2433 516.0867 428.8246C514.8287 429.3766 513.6200 431.3499 512.9333 432.6406C512.0453 432.0080 511.1927 432.0000 509.0000 432.0000L509.0000 433.3333C511.3633 433.3333 511.7407 433.3646 512.3127 433.8346L512.3940 433.7353L512.3674 433.7939C510.5907 435.4279 509.3333 436.6886 509.3333 438.0500L509.3333 447.6666L515.3333 447.6666L515.3333 446.2000C516.4620 446.2906 518.9113 446.4373 523.0000 446.4373C527.0887 446.4373 529.5380 446.2906 530.6667 446.2000L530.6667 447.6666L536.6667 447.6666L536.6667 438.0500C536.6667 436.6886 535.4100 435.4279 533.6326 433.7939L533.6060 433.7353L533.6873 433.8346C534.2540 433.3646 534.6313 433.3333 536.9947 433.3333M516.6200 430.0459C517.6740 429.5833 518.5347 429.4666 522.9947 429.4666C527.4547 429.4666 528.3153 429.5833 529.3693 430.0459C530.1380 430.3833 531.1873 431.9533 531.9147 433.3266C530.3613 433.1013 527.7507 433.0666 522.9947 433.0666C518.2387 433.0666 515.6287 433.1013 514.0746 433.3266C514.8020 431.9533 515.8513 430.3833 516.6200 430.0459M535.0200 437.2273C533.2621 437.6470 531.4673 437.8942 529.6613 437.9653L529.6613 439.2986C531.5710 439.2250 533.4689 438.9651 535.3280 438.5226L535.3280 446.3333L531.9947 446.3333L531.9947 444.7186C526.0059 445.2368 519.9835 445.2368 513.9947 444.7186L513.9947 446.3333L510.6613 446.3333L510.6613 438.5253C512.5204 438.9678 514.4183 439.2277 516.3280 439.3013L516.3280 437.9680C514.5218 437.8969 512.7269 437.6497 510.9687 437.2299C511.5403 436.4359 512.2036 435.7120 512.9446 435.0733C513.6113 434.4613 516.3713 434.4006 522.9927 434.4006C529.6140 434.4006 532.3773 434.4613 533.0406 435.0733C533.7832 435.7108 534.4471 436.4338 535.0200 437.2273" fill="currentColor"/>
<path d="M523.8373 437.2333L522.9973 437.7353L522.1573 437.2333L518.6640 437.2333L517.6640 438.2333L517.6640 441.5887L519.0520 444.0667L522.4640 444.0667L522.9973 443.5333L523.5306 444.0667L526.9973 444.0667L528.3306 441.5887L528.3306 438.2333L527.3306 437.2333L523.8373 437.2333M519.8326 442.7333L518.9973 441.2413L518.9973 438.7853L519.2160 438.5667L521.7893 438.5667L522.3306 438.8900L522.3306 442.3140L521.9120 442.7333L519.8326 442.7333M526.9973 441.2513L526.1973 442.7333L524.0813 442.7333L523.6626 442.3140L523.6626 438.8900L524.2040 438.5667L526.7773 438.5667L526.9960 438.7853L526.9973 441.2513" fill="currentColor"/>
</svg>