<svg xmlns="http://www.w3.org/2000/svg" xmlns:xlink="http://www.w3.org/1999/xlink" width="44" height="44" viewBox="0 0 44 44">
<g id="CarBlack">
        <path fill-rule="evenodd" clip-rule="evenodd" d="M27.5387 15.3173C28.4738 15.3517 29.7914 17.9072 30.3491 19.2221H29.7006L29.6674 19.1429C29.0206 17.5956 28.2248 16.3104 27.9077 15.8612C27.9077 15.8612 27.9016 15.8595 27.8905 15.8562C24.8881 15.2924 18.7675 15.624 16.0748 15.8611C16.0744 15.8612 16.0742 15.8612 16.0742 15.8612C15.7571 16.3104 14.9613 17.5956 14.3145 19.1429L14.2814 19.2221H13.6328C14.1852 17.9198 15.483 15.4006 16.4162 15.319L16.4202 15.3157C21.8093 14.745 26.0534 15.0755 27.5387 15.3173ZM14.2828 19.2221H14.2814C13.6802 20.6604 14.0284 19.8296 14.2828 19.2221ZM29.7006 19.2221H29.6991C29.9535 19.8296 30.3018 20.6604 29.7006 19.2221Z" fill="#262626"/>
        <path fill-rule="evenodd" clip-rule="evenodd" d="M13.6464 19.2013H13.1731C13.1731 18.5639 12.6515 18.0399 12.018 18.1098C11.6405 18.1514 11.3033 18.2161 11.1755 18.3135C10.5126 18.8186 11.8818 19.5607 12.7152 19.5537C12.9526 19.5518 13.2044 19.55 13.4584 19.55C13.9591 19.55 14.0651 19.4719 14.0088 19.3861C19.4702 19.5104 27.2955 19.6356 30.1084 19.5154C30.197 19.5369 30.336 19.55 30.5415 19.55C30.7955 19.55 31.0473 19.5518 31.2847 19.5537C32.1181 19.5607 33.4873 18.8186 32.8244 18.3135C32.6966 18.2161 32.3595 18.1514 31.982 18.1098C31.3485 18.0399 30.8269 18.5639 30.8269 19.2013H30.345C30.3439 19.2011 30.3429 19.201 30.3418 19.2009C25.9537 18.6301 17.3844 18.9631 13.6484 19.2009L13.6464 19.2013Z" fill="#262626"/>
        <path fill-rule="evenodd" clip-rule="evenodd" d="M13.8487 29.9341H13.8547L13.8549 29.9339C14.0523 29.9257 14.2108 29.7672 14.219 29.5698L14.2193 29.5695C14.2563 29.3105 14.3246 28.5549 14.2771 27.6037C14.2688 27.4394 13.8845 27.4417 13.4219 27.4445C13.0278 27.4469 12.5769 27.4497 12.2535 27.35L11.9149 27.0805L11.445 25.5586C11.4292 25.7858 11.3975 26.4274 11.3975 27.1756C11.3975 28.111 11.4767 29.3792 11.5243 29.617C11.5293 29.6419 11.5375 29.6652 11.5484 29.6871C11.6024 29.8314 11.7417 29.9342 11.9049 29.9342C11.9082 29.9342 11.9115 29.9342 11.9147 29.9341H13.829C13.8323 29.9342 13.8356 29.9342 13.8389 29.9342C13.8422 29.9342 13.8454 29.9342 13.8487 29.9341Z" fill="#262626"/>
        <path fill-rule="evenodd" clip-rule="evenodd" d="M30.147 29.9341H30.1404L30.1402 29.9339C29.9428 29.9257 29.7842 29.7671 29.776 29.5697L29.7758 29.5695C29.7388 29.3105 29.6705 28.5549 29.7181 27.6037C29.7263 27.4394 30.1107 27.4417 30.5732 27.4445C30.9674 27.4469 31.4182 27.4497 31.7416 27.35L32.0802 27.0805L32.5501 25.5586C32.5659 25.7858 32.5977 26.4274 32.5977 27.1756C32.5977 28.111 32.5184 29.3792 32.4708 29.617C32.4658 29.6421 32.4574 29.6656 32.4464 29.6876C32.3922 29.8317 32.2532 29.9342 32.0902 29.9342C32.0871 29.9342 32.084 29.9342 32.081 29.9341H30.1654C30.1623 29.9342 30.1593 29.9342 30.1562 29.9342C30.1531 29.9342 30.1501 29.9342 30.147 29.9341Z" fill="#262626"/>
        <path fill-rule="evenodd" clip-rule="evenodd" d="M12.8856 20.0264C12.9998 19.7981 13.3137 19.6037 13.4564 19.535L14.0746 19.3447H29.9596C30.3136 19.4187 31.0408 19.6586 31.1169 20.0264C31.19 20.3798 31.7219 20.7799 32.0578 21.0326L32.0578 21.0326C32.1589 21.1087 32.2423 21.1714 32.29 21.2154C32.4961 21.4056 32.5595 21.58 32.5754 21.7544C32.5784 21.7874 32.5836 21.8239 32.5902 21.8693L32.5902 21.8693C32.6184 22.0639 32.6705 22.4235 32.6705 23.3873C32.6705 24.5763 32.4485 26.9701 32.3851 27.4616C32.3217 27.953 32.2741 27.9847 32.0839 27.9847C32.0456 27.9847 31.9706 27.986 31.8659 27.9878H31.8659H31.8659H31.8658H31.8658H31.8658H31.8657H31.8657C31.4507 27.9949 30.5697 28.0101 29.6584 27.9847C28.7452 27.9594 28.0202 27.8896 27.7718 27.8579L27.7084 27.9055C27.4548 28.0957 27.172 28.249 27.024 28.2701C27.024 28.2701 26.6431 28.3494 26.2499 28.3494C26.0664 28.3494 25.6108 28.3582 25.0402 28.3693L25.039 28.3693L25.0389 28.3693H25.0389H25.0388H25.0388H25.0388L25.0386 28.3693C24.0816 28.3879 22.8015 28.4128 21.9378 28.4128C20.5586 28.4128 18.0204 28.3936 17.5148 28.3494C17.0069 28.3049 16.7289 28.1415 16.5129 28.0145C16.3433 27.9148 16.212 27.8376 16.0377 27.8579C15.6733 27.9004 15.0826 27.941 14.2939 27.9847C13.0238 28.0551 11.6686 28.0131 11.6491 27.9055C11.6174 27.7311 11.4589 26.1933 11.3479 24.0214C11.2369 21.8495 11.4271 21.5166 11.4589 21.4691C11.4906 21.4215 11.9979 20.9301 12.2991 20.6923C12.6003 20.4545 12.743 20.3118 12.8856 20.0264ZM22.5246 20.9142C22.5246 21.0631 22.2833 21.1837 21.9856 21.1837C21.6879 21.1837 21.4466 21.0631 21.4466 20.9142C21.4466 20.7654 21.6879 20.6447 21.9856 20.6447C22.2833 20.6447 22.5246 20.7654 22.5246 20.9142ZM26.8363 23.165C26.9579 23.0858 27.22 22.8702 27.2961 22.6419C27.3912 22.3565 27.4229 21.8968 27.407 21.8651C27.3912 21.8334 30.3082 21.2944 30.9264 21.2626C31.4211 21.2373 31.7033 21.2944 31.7825 21.3261C31.9014 21.3736 32.1032 21.5131 32.1313 21.6114C32.163 21.7224 32.1947 22.2456 32.1313 22.3724C32.0679 22.4992 31.7191 22.8955 31.3386 22.9431C30.9582 22.9907 30.0228 23.0382 29.9594 23.0224C29.9277 23.0144 29.9237 22.951 29.9198 22.8876C29.9158 22.8242 29.9118 22.7608 29.8801 22.7529C29.8167 22.737 29.5155 22.7529 29.4521 22.7846C29.4269 22.7971 29.3743 22.8397 29.3141 22.8884L29.314 22.8884C29.2224 22.9625 29.1131 23.0508 29.0558 23.0699C28.9636 23.1006 27.9489 23.1314 26.9342 23.1621H26.9342H26.9342L26.9342 23.1621L26.8363 23.165ZM16.6476 22.6419C16.7237 22.8702 16.9858 23.0858 17.1074 23.165L17.0095 23.1621L17.0095 23.1621C15.9948 23.1314 14.9801 23.1006 14.8879 23.0699C14.8305 23.0508 14.7212 22.9625 14.6296 22.8884L14.6296 22.8884C14.5694 22.8397 14.5167 22.7971 14.4916 22.7846C14.4282 22.7529 14.127 22.737 14.0635 22.7529C14.0318 22.7608 14.0279 22.8242 14.0239 22.8876C14.0199 22.951 14.016 23.0144 13.9843 23.0224C13.9209 23.0382 12.9855 22.9907 12.605 22.9431C12.2246 22.8955 11.8758 22.4992 11.8124 22.3724C11.749 22.2456 11.7807 21.7224 11.8124 21.6114C11.8405 21.5131 12.0422 21.3736 12.1612 21.3261C12.2404 21.2944 12.5226 21.2373 13.0172 21.2626C13.6355 21.2944 16.5525 21.8334 16.5366 21.8651C16.5208 21.8968 16.5525 22.3565 16.6476 22.6419ZM21.763 22.4833C21.763 22.2666 21.7186 21.8143 21.5411 21.7382C21.3191 21.6431 20.6374 21.5955 19.6704 21.5797C19.5301 21.5774 19.3913 21.5744 19.2551 21.5715L19.2551 21.5715H19.2551H19.2551C18.4522 21.5543 17.7445 21.5392 17.4192 21.6748C17.0387 21.8333 16.9119 21.9284 16.9119 22.0553C16.9119 22.059 16.9116 22.065 16.9112 22.0731L16.9112 22.0731C16.9066 22.1675 16.8881 22.5425 17.1656 22.8638C17.4293 23.1692 17.8734 23.4913 18.1168 23.5772C18.3863 23.6723 19.274 23.7198 19.924 23.7198C20.011 23.7198 20.0992 23.7204 20.1869 23.721H20.187H20.187H20.1871H20.1871C20.7546 23.7246 21.3044 23.7282 21.4142 23.5772C21.5411 23.4028 21.763 23.0064 21.763 22.4833ZM22.3973 21.7382C22.2197 21.8143 22.1753 22.2666 22.1753 22.4833C22.1753 23.0064 22.3973 23.4028 22.5241 23.5772C22.6339 23.7282 23.1837 23.7246 23.7512 23.721H23.7513H23.7513H23.7514C23.8391 23.7204 23.9273 23.7198 24.0143 23.7198C24.6643 23.7198 25.5521 23.6723 25.8216 23.5772C26.0649 23.4913 26.509 23.1692 26.7728 22.8638C27.0502 22.5425 27.0318 22.1675 27.0271 22.0731L27.0271 22.0731L27.0271 22.0728C27.0267 22.0649 27.0264 22.059 27.0264 22.0553C27.0264 21.9284 26.8996 21.8333 26.5191 21.6748C26.1938 21.5392 25.4861 21.5543 24.6833 21.5715H24.6833H24.6832C24.5471 21.5744 24.4082 21.5774 24.268 21.5797C23.3009 21.5955 22.6192 21.6431 22.3973 21.7382ZM16.6252 25.4768C18.0836 25.5019 21.0863 25.5536 22 25.5581C22.9138 25.5536 25.9164 25.5019 27.3748 25.4768L27.3752 25.4768C27.8494 25.4686 28.1602 25.4633 28.1828 25.4633C28.2581 25.4633 28.2539 25.493 28.2489 25.529C28.2476 25.5385 28.2462 25.5484 28.2462 25.5584C28.2462 25.6059 27.6914 26.6205 27.5962 26.7474C27.5859 26.7611 27.5745 26.7767 27.562 26.7939C27.4589 26.9346 27.2817 27.1767 27.0414 27.3181C26.7788 27.4726 26.6817 27.4765 25.9582 27.5059L25.9 27.5083C25.4321 27.5274 23.1739 27.5244 22 27.5098C20.8261 27.5244 18.5679 27.5274 18.1001 27.5083L18.0419 27.5059C17.3183 27.4765 17.2213 27.4726 16.9587 27.3181C16.7184 27.1767 16.5411 26.9346 16.4381 26.7939L16.4381 26.7938L16.438 26.7938C16.4255 26.7767 16.4141 26.7611 16.4038 26.7474C16.3087 26.6205 15.7538 25.6059 15.7538 25.5584C15.7538 25.5484 15.7524 25.5385 15.7511 25.529L15.7511 25.529C15.7461 25.493 15.742 25.4633 15.8172 25.4633C15.8398 25.4633 16.1507 25.4686 16.6248 25.4768L16.6252 25.4768ZM28.7353 26.7952C28.6972 26.7317 28.7511 26.6313 28.7828 26.5891C28.9169 26.3343 29.2778 25.796 29.5394 25.4058L29.5396 25.4056C29.5872 25.3346 29.6315 25.2684 29.6706 25.2098C29.9242 24.8294 30.1303 24.6391 30.2572 24.5757C30.384 24.5123 30.9547 24.4172 31.3827 24.4013C31.7637 24.3872 31.7805 24.3982 31.8355 24.4343C31.8423 24.4388 31.8496 24.4437 31.8583 24.4489C31.9245 24.4886 31.9465 24.5946 31.9612 24.6654C31.9641 24.6794 31.9667 24.6921 31.9693 24.7025C31.9852 24.7659 32.0327 25.2732 32.0644 25.6854C32.0961 26.0976 32.0961 26.8427 32.0803 26.8744C32.0661 26.9028 31.9535 27.1281 31.7791 27.1598C31.7444 27.1661 31.7104 27.173 31.6751 27.1802C31.5329 27.2091 31.3705 27.2422 31.0657 27.2549C30.6852 27.2708 29.1316 26.9695 29.084 26.9537C29.0771 26.9514 29.0659 26.9481 29.0515 26.9439C28.9672 26.9191 28.7759 26.8629 28.7353 26.7952ZM15.2229 26.5791C15.2546 26.6214 15.3085 26.7218 15.2705 26.7852C15.2298 26.853 15.0386 26.9091 14.9542 26.9339C14.9399 26.9381 14.9286 26.9414 14.9217 26.9437C14.8742 26.9596 13.3205 27.2608 12.9401 27.2449C12.6352 27.2322 12.4729 27.1992 12.3307 27.1702C12.2954 27.1631 12.2613 27.1561 12.2267 27.1498C12.0523 27.1181 11.9396 26.8928 11.9255 26.8645C11.9096 26.8328 11.9096 26.0877 11.9413 25.6755C11.973 25.2633 12.0206 24.756 12.0364 24.6926C12.0391 24.6821 12.0417 24.6695 12.0446 24.6555C12.0592 24.5847 12.0812 24.4786 12.1474 24.4389C12.1561 24.4337 12.1635 24.4288 12.1703 24.4244C12.2253 24.3883 12.242 24.3772 12.623 24.3914C13.051 24.4072 13.6218 24.5023 13.7486 24.5657C13.8754 24.6292 14.0815 24.8194 14.3352 25.1999C14.3743 25.2585 14.4187 25.3247 14.4663 25.3959C14.7279 25.786 15.0888 26.3243 15.2229 26.5791Z" fill="#262626"/>
    </g>
</svg>
