<svg xmlns="http://www.w3.org/2000/svg" viewBox="238.3335 153.3335 31.9980 31.9980" width="24" height="24" fill="currentColor">
<path d="M262.6650 159.3350L262.6650 156.0000L261.3350 156.0000L261.3350 159.3350L260.3350 159.3350L260.3350 160.0000C260.3350 162.0310 260.6204 163.4545 261.2593 164.3782C261.7987 165.1582 262.5324 165.5074 263.3350 165.6208L263.3350 173.0000C263.3350 173.4831 263.1897 173.7998 262.9948 173.9948C262.7998 174.1897 262.4831 174.3350 262.0000 174.3350C261.5169 174.3350 261.2002 174.1897 261.0052 173.9948C260.8103 173.7998 260.6650 173.4831 260.6650 173.0000L260.6650 168.0000C260.6650 167.2431 260.4303 166.5598 259.9352 166.0648C259.4402 165.5697 258.7569 165.3350 258.0000 165.3350L256.6650 165.3350L256.6650 159.0000C256.6650 158.2430 256.4303 157.5598 255.9352 157.0647C255.7981 156.9277 255.6281 156.7936 255.3599 156.6875C255.1158 156.5909 254.8124 156.5261 254.4158 156.4779C253.6249 156.3818 252.3069 156.3350 250.0000 156.3350C247.6930 156.3350 246.3751 156.3818 245.5841 156.4779C245.1875 156.5261 244.8841 156.5909 244.6400 156.6875C244.3719 156.7936 244.2018 156.9277 244.0647 157.0647C243.5697 157.5598 243.3350 158.2430 243.3350 159.0000L243.3350 178.3350L241.0000 178.3350L241.0000 179.6650L259.0000 179.6650L259.0000 178.3350L256.6650 178.3350L256.6650 166.6650L258.0000 166.6650C258.4831 166.6650 258.7998 166.8103 258.9948 167.0052C259.1897 167.2002 259.3350 167.5169 259.3350 168.0000L259.3350 173.0000C259.3350 173.7569 259.5697 174.4402 260.0648 174.9352C260.5598 175.4303 261.2431 175.6650 262.0000 175.6650C262.7569 175.6650 263.4402 175.4303 263.9352 174.9352C264.4303 174.4402 264.6650 173.7569 264.6650 173.0000L264.6650 165.6208C265.4675 165.5073 266.2012 165.1581 266.7406 164.3782C267.3795 163.4545 267.6650 162.0310 267.6650 160.0000L267.6650 159.3350L266.6650 159.3350L266.6650 156.0000L265.3350 156.0000L265.3350 159.3350L262.6650 159.3350M261.6769 160.6650L266.3230 160.6650C266.2646 162.2178 265.9980 163.1139 265.6468 163.6217C265.2949 164.1305 264.7942 164.3350 264.0000 164.3350C263.2057 164.3350 262.7050 164.1305 262.3531 163.6217C262.0019 163.1139 261.7353 162.2178 261.6769 160.6650M255.3350 159.0000L255.3350 178.3350L244.6650 178.3350L244.6650 159.0000C244.6650 158.5169 244.8103 158.2001 245.0052 158.0052C245.0406 157.9697 245.0624 157.9507 245.1295 157.9241C245.2205 157.8881 245.3955 157.8407 245.7446 157.7982C246.4449 157.7131 247.6869 157.6650 250.0000 157.6650C252.3130 157.6650 253.5551 157.7131 254.2554 157.7982C254.6044 157.8407 254.7794 157.8881 254.8705 157.9241C254.9375 157.9507 254.9593 157.9697 254.9947 158.0052C255.1897 158.2001 255.3350 158.5169 255.3350 159.0000" fill="currentColor"/>
<path d="M248.3349 162.5000L248.3349 166.6650L250.3349 166.6650L250.3349 168.8350L249.2255 168.8350L250.9999 171.7925L252.7746 168.8350L251.6649 168.8350L251.6649 165.3350L249.6649 165.3350L249.6649 162.5000L248.3349 162.5000" fill="currentColor"/>
</svg>