<svg xmlns="http://www.w3.org/2000/svg" viewBox="147.8828 152.8828 31.7643 31.7643" width="24" height="24" fill="currentColor">
<path d="M160.5596 161.5000L155.5298 156.4702L156.4702 155.5298L161.5000 160.5596L164.0000 158.0596L164.4702 158.5298C167.6935 161.7531 169.3462 164.3532 169.7188 166.6301C170.0663 168.7538 169.2860 170.4708 167.9279 171.9875C169.6520 173.7134 170.8207 174.9071 171.5533 176.0061C172.3908 177.2624 172.6650 178.3979 172.6650 180.0000L172.6650 182.0000L171.3350 182.0000L171.3350 180.0000C171.3350 178.6021 171.1092 177.7376 170.4467 176.7439C169.7973 175.7697 168.7348 174.6781 166.9873 172.9280C165.4706 174.2860 163.7537 175.0663 161.6301 174.7188C159.3532 174.3462 156.7531 172.6935 153.5298 169.4702L153.0596 169.0000L155.5596 166.5000L150.5298 161.4702L151.4702 160.5298L156.5000 165.5596L160.5596 161.5000M161.8449 173.4062C163.6178 173.6964 165.0646 172.9950 166.5298 171.5298C167.9950 170.0646 168.6964 168.6178 168.4062 166.8449C168.1191 165.0899 166.8445 162.8824 163.9964 159.9441L154.9441 168.9964C157.8824 171.8445 160.0899 173.1191 161.8449 173.4062" fill="rgb(0,0,0)"/>
</svg>