<svg xmlns="http://www.w3.org/2000/svg" viewBox="415.4020 154.4019 35.1960 35.1960" width="24" height="24" fill="currentColor">
<path d="M434.1288 178.8164L434.2869 178.7825L434.2869 177.4284L434.0444 177.4811C433.3532 177.6313 432.6001 177.7946 431.9399 177.7946C431.4797 177.7946 431.1451 177.7271 430.8961 177.5983C430.6525 177.4722 430.4750 177.2794 430.3418 176.9954C430.1529 176.5905 430.0624 175.8931 430.0624 175.0623C430.0624 174.1883 430.1538 173.4159 430.3693 172.9848C430.5125 172.6983 430.6905 172.5122 430.9275 172.3932C431.1703 172.2713 431.4928 172.2107 431.9399 172.2107C432.6408 172.2107 433.3628 172.4145 434.0360 172.5918L434.2869 172.6578L434.2869 171.2924L434.1408 171.2515C433.4141 171.0482 432.6268 170.8863 431.8703 170.8863C431.1523 170.8863 430.6101 171.0093 430.1861 171.2383C429.7600 171.4685 429.4703 171.7966 429.2434 172.1766C428.8158 172.8927 428.6883 173.9549 428.6883 175.0722C428.6883 176.0947 428.8272 177.0575 429.1371 177.6671C429.3476 178.0879 429.6314 178.4572 430.0694 178.7181C430.5058 178.9780 431.0761 179.1190 431.8405 179.1190C432.6789 179.1190 433.4329 178.9655 434.1288 178.8164" fill="rgb(0,0,0)"/>
<path d="M435.7774 172.2664C435.5708 172.6145 435.4386 173.0665 435.3572 173.5412C435.2753 174.0185 435.2425 174.5322 435.2425 175.0126C435.2425 176.1045 435.4108 177.2160 435.8395 177.9018C436.0860 178.2982 436.4052 178.6080 436.8606 178.8153C437.3112 179.0203 437.8819 179.1190 438.6233 179.1190C439.2560 179.1190 439.7806 179.0350 440.2246 178.8399C440.6718 178.6434 441.0246 178.3397 441.3211 177.9214C441.5766 177.5572 441.7437 177.0795 441.8472 176.5762C441.9511 176.0705 441.9941 175.5248 441.9941 175.0126C441.9941 174.4858 441.9512 173.9299 441.8446 173.4163C441.7385 172.9050 441.5667 172.4224 441.3004 172.0528C441.0193 171.6605 440.6820 171.3646 440.2413 171.1693C439.8036 170.9754 439.2765 170.8863 438.6233 170.8863C437.8755 170.8863 437.2900 171.0143 436.8252 171.2554C436.3582 171.4977 436.0268 171.8473 435.7774 172.2664M440.2228 172.9017C440.3676 173.1342 440.4685 173.4512 440.5322 173.8225C440.5955 174.1917 440.6200 174.6021 440.6200 175.0126C440.6200 175.4480 440.5930 175.8912 440.5156 176.2862C440.4379 176.6834 440.3126 177.0140 440.1290 177.2411C439.7674 177.6706 439.2940 177.7946 438.6233 177.7946C437.8456 177.7946 437.2855 177.6730 436.9673 177.1387C436.8414 176.9166 436.7520 176.5975 436.6951 176.2192C436.6387 175.8432 436.6166 175.4238 436.6166 175.0126C436.6166 174.6005 436.6363 174.1961 436.6890 173.8377C436.7336 173.5346 436.8035 173.2323 436.9501 172.9611C437.2636 172.3849 437.8495 172.2107 438.6233 172.2107C439.3896 172.2107 439.9086 172.3921 440.2228 172.9017" fill="rgb(0,0,0)"/>
<path d="M443.1404 180.2422L446.7311 180.2422L446.7311 179.0768L445.0490 179.0768C445.3649 178.7897 445.7135 178.4883 445.9843 178.1578C446.1595 177.9619 446.2919 177.7823 446.3786 177.5858C446.4667 177.3862 446.5025 177.1811 446.5025 176.9409C446.5025 176.5434 446.3439 176.1651 446.0626 175.9323C445.7656 175.6833 445.3556 175.5680 444.8413 175.5680C444.2790 175.5680 443.6730 175.7024 443.3912 175.7728L443.2397 175.8107L443.2397 177.0209L443.4902 176.9555C443.7217 176.8952 444.3141 176.7433 444.8115 176.7433C445.0544 176.7433 445.1551 176.7920 445.1969 176.8339C445.2413 176.8783 445.2675 176.9326 445.2675 177.0403C445.2675 177.1689 445.2082 177.3051 444.8688 177.6444C444.4871 178.0262 443.7272 178.6975 443.2095 179.1455L443.1404 179.2053L443.1404 180.2422" fill="rgb(0,0,0)"/>
<path d="M446.0808 172.9999C446.2467 172.3884 446.3350 171.7199 446.3350 170.9999C446.3350 169.0511 445.6882 167.4787 444.6047 166.3952C443.5212 165.3117 441.9488 164.6649 440.0000 164.6649C439.9066 164.6649 439.8141 164.6664 439.7224 164.6694L439.1878 164.6866L439.0564 164.1681C438.2041 160.8057 435.4374 158.6649 431.5000 158.6649C429.1362 158.6649 427.2110 159.4386 425.8678 160.7483C424.5249 162.0577 423.7132 163.9523 423.6671 166.2889L423.6574 166.7757L423.1905 166.9136C421.0381 167.5492 419.6649 169.3816 419.6649 171.9999C419.6649 173.6488 420.2117 174.9712 421.1202 175.8797C422.0287 176.7882 423.3511 177.3349 425.0000 177.3349L426.0000 177.3349L426.0000 178.6649L425.0000 178.6649C423.0488 178.6649 421.3712 178.0117 420.1797 176.8202C418.9883 175.6287 418.3350 173.9510 418.3350 171.9999C418.3350 169.0287 419.8545 166.7286 422.3561 165.7910C422.5032 163.3566 423.4119 161.2854 424.9393 159.7960C426.5642 158.2116 428.8388 157.3349 431.5000 157.3349C435.7989 157.3349 439.0434 159.6278 440.2031 163.3370C442.3670 163.3810 444.2200 164.1295 445.5452 165.4547C446.9117 166.8212 447.6650 168.7488 447.6650 170.9999C447.6650 171.7003 447.5920 172.3694 447.4504 172.9999L446.0808 172.9999" fill="rgb(0,0,0)"/>
</svg>