<svg xmlns="http://www.w3.org/2000/svg" xmlns:xlink="http://www.w3.org/1999/xlink" width="44" height="44" viewBox="0 0 44 44">
<g id="Drive">
        <g id="Group" opacity="0.5">
            <path d="M23.0416 24.1113C23.0442 24.2477 23.0186 24.3832 22.9664 24.5093C22.9142 24.6354 22.8366 24.7494 22.7384 24.8441C22.5409 25.0368 22.2759 25.1447 22 25.1447C21.7241 25.1447 21.4591 25.0368 21.2616 24.8441C21.0673 24.6497 20.9582 24.3861 20.9582 24.1113C20.9582 23.8364 21.0673 23.5728 21.2616 23.3784C21.4591 23.1857 21.7241 23.0779 22 23.0779C22.2759 23.0779 22.5409 23.1857 22.7384 23.3784C22.8366 23.4731 22.9142 23.5871 22.9664 23.7132C23.0186 23.8393 23.0442 23.9748 23.0416 24.1113ZM25.8826 19.0794H26.6966C26.7376 19.0806 26.7783 19.0728 26.8159 19.0565C26.8535 19.0403 26.8872 19.016 26.9144 18.9854C26.9683 18.93 26.9989 18.856 26.9998 18.7787V16.3017C27.0012 16.2617 26.9943 16.2219 26.9796 16.1847C26.9649 16.1476 26.9427 16.1138 26.9144 16.0856C26.8858 16.0573 26.8517 16.0351 26.8143 16.0205C26.7768 16.0058 26.7368 15.9989 26.6966 16.0002H25.8826C25.8424 15.9989 25.8023 16.0058 25.7649 16.0205C25.7275 16.0351 25.6934 16.0573 25.6648 16.0856C25.6365 16.1138 25.6143 16.1476 25.5996 16.1847C25.5849 16.2219 25.578 16.2617 25.5794 16.3017V16.9594H22.9468C22.8563 16.7944 22.7218 16.6578 22.5582 16.5648C22.3886 16.466 22.1958 16.414 21.9996 16.414C21.8033 16.414 21.6106 16.466 21.441 16.5648C21.2774 16.6578 21.1428 16.7944 21.0523 16.9594H18.4206V16.3017C18.422 16.2617 18.4151 16.2219 18.4004 16.1847C18.3857 16.1476 18.3635 16.1138 18.3352 16.0856C18.3066 16.0573 18.2725 16.0351 18.2351 16.0205C18.1977 16.0058 18.1576 15.9989 18.1174 16.0002H17.3034C17.2632 15.9989 17.2232 16.0058 17.1857 16.0205C17.1483 16.0351 17.1142 16.0573 17.0856 16.0856C17.0573 16.1138 17.0351 16.1476 17.0204 16.1847C17.0057 16.2219 16.9988 16.2617 17.0002 16.3017V18.7787C17.0011 18.856 17.0317 18.93 17.0856 18.9854C17.1128 19.016 17.1465 19.0403 17.1841 19.0565C17.2217 19.0728 17.2624 19.0806 17.3034 19.0794H18.1174C18.1584 19.0806 18.1991 19.0728 18.2367 19.0565C18.2743 19.0403 18.308 19.016 18.3352 18.9854C18.3891 18.93 18.4197 18.856 18.4206 18.7787V18.0997H21.0685C21.1154 18.1706 21.1692 18.2367 21.2291 18.297C21.2874 18.3544 21.3546 18.402 21.4281 18.4379V22.1962C21.0168 22.318 20.6552 22.5682 20.3963 22.9103C20.1323 23.2555 19.9893 23.678 19.9893 24.1125C19.9893 24.5471 20.1323 24.9696 20.3963 25.3148C20.6552 25.6569 21.0168 25.9071 21.4281 26.0289V26.3295C21.2673 26.4141 21.1355 26.5451 21.0497 26.7054H18.4206V26.0289C18.4197 25.9516 18.3891 25.8776 18.3352 25.8222C18.308 25.7916 18.2743 25.7673 18.2367 25.7511C18.1991 25.7348 18.1584 25.727 18.1174 25.7282H17.3034C17.2624 25.727 17.2217 25.7348 17.1841 25.7511C17.1465 25.7673 17.1128 25.7916 17.0856 25.8222C17.0317 25.8776 17.0011 25.9516 17.0002 26.0289V28.5059C16.9988 28.5459 17.0057 28.5857 17.0204 28.6229C17.0351 28.66 17.0573 28.6938 17.0856 28.722C17.1142 28.7503 17.1483 28.7725 17.1857 28.7871C17.2232 28.8018 17.2632 28.8087 17.3034 28.8074H18.1174C18.1576 28.8087 18.1977 28.8018 18.2351 28.7871C18.2725 28.7725 18.3066 28.7503 18.3352 28.722C18.3635 28.6938 18.3857 28.66 18.4004 28.6229C18.4151 28.5857 18.422 28.5459 18.4206 28.5059V27.8482H21.0685C21.169 27.998 21.3018 28.1232 21.4572 28.2147C21.6208 28.3102 21.8076 28.3589 21.997 28.3556C22.1832 28.3565 22.3663 28.3078 22.5274 28.2147C22.6869 28.1252 22.8232 27.9997 22.9255 27.8482H25.5734V28.5059C25.572 28.5459 25.5789 28.5857 25.5936 28.6229C25.6083 28.66 25.6305 28.6938 25.6588 28.722C25.6874 28.7503 25.7215 28.7725 25.7589 28.7871C25.7964 28.8018 25.8364 28.8087 25.8766 28.8074H26.6906C26.7308 28.8087 26.7709 28.8018 26.8083 28.7871C26.8458 28.7725 26.8798 28.7503 26.9084 28.722C26.9367 28.6938 26.9589 28.66 26.9736 28.6229C26.9883 28.5857 26.9952 28.5459 26.9939 28.5059V26.0289C26.9929 25.9516 26.9624 25.8776 26.9084 25.8222C26.8812 25.7916 26.8476 25.7673 26.8099 25.7511C26.7723 25.7348 26.7316 25.727 26.6906 25.7282H25.8766C25.8357 25.727 25.7949 25.7348 25.7573 25.7511C25.7197 25.7673 25.6861 25.7916 25.6588 25.8222C25.6049 25.8776 25.5743 25.9516 25.5734 26.0289V26.7054H22.9468C22.8954 26.6291 22.8383 26.5569 22.776 26.4893C22.717 26.4235 22.6464 26.3694 22.5676 26.3295V26.0289C22.9808 25.9081 23.3443 25.6578 23.6045 25.3148C23.8685 24.9696 24.0116 24.5471 24.0116 24.1125C24.0116 23.678 23.8685 23.2555 23.6045 22.9103C23.3457 22.5682 22.9841 22.318 22.5727 22.1962V18.4379C22.6462 18.402 22.7134 18.3544 22.7717 18.297C22.8316 18.2367 22.8854 18.1706 22.9323 18.0997H25.5802V18.7762C25.5811 18.8535 25.6117 18.9275 25.6656 18.9829C25.6926 19.0138 25.7259 19.0385 25.7634 19.0552C25.8009 19.0719 25.8416 19.0801 25.8826 19.0794Z" fill="currentColor"/>
        </g>
    </g>
</svg>
