<svg xmlns="http://www.w3.org/2000/svg" viewBox="145.4010 662.4020 35.1961 35.1961" width="24" height="24" fill="currentColor">
<path d="M159.9645 684.6650L161.0312 684.6650C161.0105 684.4461 161.0000 684.2243 161.0000 684.0000C161.0000 683.7757 161.0105 683.5539 161.0312 683.3350L159.9990 683.3350C159.2351 683.3350 158.7006 683.3342 158.2899 683.2917C157.8857 683.2498 157.6883 683.1742 157.5621 683.0840C157.4399 682.9966 157.3080 682.8406 157.1537 682.4755C156.9960 682.1024 156.8437 681.5833 156.6413 680.8279L156.5092 680.3350L153.6640 680.3350L153.6640 671.6650L155.6640 671.6650L155.6640 670.2770C155.8117 670.1327 155.9146 670.0403 156.0181 669.9686C156.1376 669.8859 156.2695 669.8241 156.5044 669.7771C157.0465 669.6686 157.9559 669.6650 159.9990 669.6650L160.6640 669.6650L160.6640 666.6650L163.3340 666.6650L163.3340 669.6650L163.9990 669.6650C166.0421 669.6650 166.9514 669.6686 167.4936 669.7771C167.7285 669.8241 167.8604 669.8859 167.9798 669.9686C168.0833 670.0403 168.1863 670.1327 168.3340 670.2770L168.3340 671.6650L170.3340 671.6650L170.3340 674.6650L174.6640 674.6650L174.6640 672.6650L175.6124 672.6650C175.9751 673.3131 176.1359 673.6824 176.2231 674.0985C176.3306 674.6108 176.3340 675.2203 176.3340 676.5000C176.3340 677.7797 176.3306 678.3892 176.2231 678.9015C176.1359 679.3176 175.9751 679.6869 175.6124 680.3350L174.6640 680.3350L174.6640 680.3300L173.9619 680.3300C174.2197 680.7479 174.4348 681.1949 174.6011 681.6650L176.3829 681.6650L176.5749 681.3325C177.0760 680.4646 177.3760 679.8840 177.5248 679.1745C177.6641 678.5104 177.6641 677.7557 177.6640 676.5832L177.6640 676.4168C177.6641 675.2443 177.6641 674.4896 177.5248 673.8255C177.3760 673.1160 177.0760 672.5354 176.5749 671.6675L176.3829 671.3350L173.3340 671.3350L173.3340 673.3350L171.6640 673.3350L171.6640 670.3350L169.6640 670.3350L169.6640 669.7245L169.4436 669.5042C169.2151 669.2756 168.9900 669.0504 168.7369 668.8751C168.4501 668.6766 168.1445 668.5509 167.7544 668.4729C167.1311 668.3483 166.2110 668.3362 164.6640 668.3351L164.6640 666.6650L166.9980 666.6650L166.9980 665.3350L156.9980 665.3350L156.9980 666.6650L159.3340 666.6650L159.3340 668.3351C157.7870 668.3362 156.8669 668.3483 156.2436 668.4729C155.8535 668.5509 155.5479 668.6766 155.2611 668.8751C155.0079 669.0504 154.7828 669.2756 154.5544 669.5042L154.3340 669.7245L154.3340 670.3350L152.3340 670.3350L152.3340 675.3350L149.6640 675.3350L149.6640 671.0000L148.3340 671.0000L148.3340 681.0000L149.6640 681.0000L149.6640 676.6650L152.3340 676.6650L152.3340 681.6650L155.4911 681.6650C155.6375 682.1889 155.7756 682.6312 155.9286 682.9933C156.1310 683.4719 156.3864 683.8784 156.7886 684.1660C157.1870 684.4508 157.6514 684.5627 158.1529 684.6146C158.6401 684.6650 159.2436 684.6650 159.9645 684.6650" fill="currentColor"/>
<path d="M171.1925 682.6920L167.2505 686.6339L164.8086 684.1920L165.6925 683.3081L167.2505 684.8662L170.3086 681.8081L171.1925 682.6920" fill="currentColor"/>
<path d="M168.0009 678.3350C166.3498 678.3350 164.9222 678.8882 163.9057 679.9047C162.8892 680.9212 162.3359 682.3488 162.3359 684.0000C162.3359 685.6511 162.8892 687.0787 163.9057 688.0952C164.9222 689.1117 166.3498 689.6650 168.0009 689.6650C169.4032 689.6650 170.6151 689.2269 171.5540 688.4930L174.5312 691.4702L175.4717 690.5298L172.4914 687.5495C173.2433 686.5754 173.6659 685.3387 173.6659 684.0000C173.6659 682.3488 173.1127 680.9212 172.0962 679.9047C171.0797 678.8882 169.6521 678.3350 168.0009 678.3350M163.6659 684.0000C163.6659 682.6511 164.1127 681.5787 164.8462 680.8452C165.5797 680.1117 166.6521 679.6650 168.0009 679.6650C169.3498 679.6650 170.4222 680.1117 171.1557 680.8452C171.8892 681.5787 172.3359 682.6511 172.3359 684.0000C172.3359 686.4153 170.6128 688.3350 168.0009 688.3350C166.6521 688.3350 165.5797 687.8882 164.8462 687.1547C164.1127 686.4212 163.6659 685.3488 163.6659 684.0000" fill="currentColor"/>
</svg>