<svg xmlns="http://www.w3.org/2000/svg" viewBox="327.8020 152.8020 30.3960 30.3960" width="24" height="24" fill="currentColor">
<path d="M351.2297 159.7702C353.1882 161.7287 354.3350 164.5511 354.3350 168.0000L355.6650 168.0000C355.6650 164.2488 354.4117 161.0712 352.1702 158.8297C349.9287 156.5882 346.7511 155.3350 343.0000 155.3350C339.2488 155.3350 336.0712 156.5882 333.8297 158.8297C331.5882 161.0712 330.3350 164.2488 330.3350 168.0000C330.3350 171.7511 331.5882 174.9287 333.8297 177.1702C336.0712 179.4117 339.2488 180.6650 343.0000 180.6650C343.3526 180.6650 343.7002 180.6539 344.0425 180.6320L344.6650 180.5921L344.6650 175.0000C344.6650 174.1665 344.5240 173.4361 344.1573 172.7026C343.8694 172.1267 343.4539 171.5727 342.9029 170.9782C343.3865 170.3404 343.6486 169.5959 343.4512 168.6800C343.2227 167.6201 342.3954 166.4551 340.9701 165.0298L340.4999 164.5596L339.5001 165.5594L336.9705 163.0298L336.0300 163.9702L338.5596 166.4998L337.5000 167.5594L334.9703 165.0298L334.0299 165.9702L336.5595 168.4999L335.5594 169.5000L336.0297 169.9702C337.4550 171.3955 338.6200 172.2228 339.6798 172.4513C340.5869 172.6469 341.3258 172.3917 341.9595 171.9171C342.4403 172.4400 342.7586 172.8792 342.9677 173.2974C343.2260 173.8139 343.3350 174.3335 343.3350 175.0000L343.3350 179.3313C343.2240 179.3337 343.1123 179.3350 343.0000 179.3350C339.5511 179.3350 336.7287 178.1882 334.7702 176.2297C332.8117 174.2712 331.6649 171.4488 331.6649 168.0000C331.6649 164.5511 332.8117 161.7287 334.7702 159.7702C336.7287 157.8117 339.5511 156.6650 343.0000 156.6650C346.4488 156.6650 349.2712 157.8117 351.2297 159.7702M342.1510 168.9603C342.2705 169.5142 342.0953 169.9641 341.5297 170.5298C340.9640 171.0955 340.5141 171.2706 339.9601 171.1512C339.3816 171.0264 338.5892 170.5630 337.4476 169.4928L340.4926 166.4477C341.5629 167.5893 342.0263 168.3817 342.1510 168.9603" fill="rgb(0,0,0)"/>
<path d="M347.0000 180.1389L347.0000 178.7517C347.8426 178.4870 348.6229 178.1363 349.3350 177.7080L349.3350 174.2754L346.5298 171.4702C346.0024 170.9429 345.6590 170.4972 345.4870 169.9126C345.3346 169.3943 345.3348 168.8071 345.3350 168.0832L345.3350 163.2755L343.0000 160.9405L343.0000 159.0596L349.4702 165.5298C349.9976 166.0572 350.3410 166.5028 350.5130 167.0874C350.6654 167.6057 350.6652 168.1929 350.6650 168.9167L350.6650 178.4369L350.3626 178.6336C349.3550 179.2892 348.2276 179.7957 347.0000 180.1389M349.3350 172.3946L349.3350 169.0000C349.3350 168.1623 349.3288 167.7747 349.2370 167.4627C349.1590 167.1973 349.0024 166.9429 348.5298 166.4703L346.6650 164.6055L346.6650 168.0000C346.6650 168.8377 346.6712 169.2254 346.7630 169.5373C346.8410 169.8027 346.9976 170.0571 347.4702 170.5298L349.3350 172.3946" fill="rgb(0,0,0)"/>
</svg>