<svg xmlns="http://www.w3.org/2000/svg" viewBox="237.8020 152.8020 30.3960 30.3960" width="24" height="24" fill="currentColor">
<path d="M264.3350 168.0000C264.3350 164.5511 263.1882 161.7287 261.2297 159.7702C259.2712 157.8117 256.4488 156.6650 253.0000 156.6650C249.5511 156.6650 246.7287 157.8117 244.7702 159.7702C242.8117 161.7287 241.6650 164.5511 241.6650 168.0000C241.6650 171.4488 242.8117 174.2712 244.7702 176.2297C246.7287 178.1882 249.5511 179.3350 253.0000 179.3350C255.4609 179.3350 257.6017 178.7506 259.3350 177.7080L259.3350 174.2754L256.5298 171.4702C256.0024 170.9429 255.6590 170.4972 255.4870 169.9126C255.3346 169.3943 255.3348 168.8071 255.3350 168.0832L255.3350 163.2755L253.0000 160.9405L253.0000 159.0596L259.4702 165.5298C259.9976 166.0572 260.3410 166.5028 260.5130 167.0874C260.6654 167.6057 260.6652 168.1929 260.6650 168.9167L260.6650 178.4369L260.3626 178.6336C258.3368 179.9517 255.8310 180.6650 253.0000 180.6650C249.2488 180.6650 246.0712 179.4117 243.8297 177.1702C241.5882 174.9287 240.3350 171.7511 240.3350 168.0000C240.3350 164.2488 241.5882 161.0712 243.8297 158.8297C246.0712 156.5882 249.2488 155.3350 253.0000 155.3350C256.7511 155.3350 259.9287 156.5882 262.1702 158.8297C264.4117 161.0712 265.6650 164.2488 265.6650 168.0000L264.3350 168.0000M259.3350 169.0000C259.3350 168.1623 259.3288 167.7747 259.2370 167.4627C259.1590 167.1973 259.0024 166.9429 258.5298 166.4703L256.6650 164.6055L256.6650 168.0000C256.6650 168.8377 256.6712 169.2254 256.7630 169.5373C256.8410 169.8027 256.9976 170.0571 257.4702 170.5298L259.3350 172.3946L259.3350 169.0000" fill="currentColor"/>
<path d="M249.5000 172.6650C248.5742 172.6650 247.7610 172.3525 247.1833 171.7303C246.6109 171.1140 246.3350 170.2645 246.3350 169.3077C246.3350 168.2422 246.9469 167.2525 247.4824 166.4159C247.5316 166.3391 247.5805 166.2630 247.6291 166.1874C248.1523 165.3740 248.6312 164.6294 248.8480 163.8267L248.9807 163.3350L250.0192 163.3350L250.1520 163.8267C250.3687 164.6294 250.8472 165.3734 251.3704 166.1868C251.4191 166.2625 251.4683 166.3389 251.5176 166.4159C252.0530 167.2525 252.6650 168.2422 252.6650 169.3077C252.6650 170.2645 252.3890 171.1140 251.8166 171.7303C251.2389 172.3525 250.4258 172.6650 249.5000 172.6650M247.6650 169.3077C247.6650 170.0148 247.8665 170.5115 248.1579 170.8253C248.4439 171.1334 248.8808 171.3350 249.5000 171.3350C250.1192 171.3350 250.5560 171.1334 250.8420 170.8253C251.1334 170.5115 251.3350 170.0148 251.3350 169.3077C251.3350 168.6948 250.9719 168.0306 250.3974 167.1329C250.3465 167.0534 250.2940 166.9722 250.2406 166.8895C249.9995 166.5161 249.7375 166.1104 249.5000 165.6779C249.2624 166.1104 249.0006 166.5159 248.7595 166.8893C248.7060 166.9721 248.6535 167.0533 248.6026 167.1329C248.0280 168.0306 247.6650 168.6948 247.6650 169.3077" fill="currentColor"/>
</svg>