<svg xmlns="http://www.w3.org/2000/svg" xmlns:xlink="http://www.w3.org/1999/xlink" width="44" height="44" viewBox="0 0 44 44">
<g id="Fuel">
        <g id="Group" opacity="0.5">
            <g id="Group" clip-path="url(#clip0)">
                <path d="M19.7968 27.2166L18.4539 25.1857L19.1519 24.5579L20.1982 26.0913C20.2096 26.1089 20.2259 26.1227 20.2451 26.131C20.2643 26.1393 20.2856 26.1417 20.3062 26.1379C20.3187 26.1351 20.3304 26.1292 20.34 26.1207L23.1077 23.6277L23.8356 24.0567L20.2245 27.3083C20.196 27.3336 20.1615 27.3513 20.1243 27.3598C20.0617 27.3712 19.9971 27.3637 19.9387 27.3382C19.8804 27.3126 19.831 27.2703 19.7968 27.2166ZM14.0681 28.0624C14.1572 27.8196 14.1283 27.9134 14.1576 27.8154C14.2134 27.6243 14.2832 27.4376 14.3663 27.2567C14.4857 26.9713 14.6368 26.7004 14.8168 26.4489C15.0751 26.1191 15.3655 25.8157 15.6835 25.543L15.8194 25.4177L16.5178 26.1406L16.3959 26.2532C16.1261 26.4826 15.8789 26.7374 15.6577 27.0139C15.5198 27.2082 15.4045 27.4177 15.3142 27.6383C15.2497 27.7797 15.1958 27.9258 15.1531 28.0753C15.1179 28.1922 15.1542 28.0804 15.0068 28.4684L14.0681 28.0624ZM15.6289 24.7917L16.3916 24.1017L17.7909 25.5522L17.0277 26.2397L15.6289 24.7917ZM19.4093 24.3242L21.3411 22.5841L21.8298 22.8725L22.0705 23.0142L22.2863 23.1386L22.3942 23.2022L22.2783 23.3059L19.844 25.1073L19.4093 24.3242ZM16.8333 24.0551L19.6018 21.5424C19.619 21.527 19.6328 21.5083 19.6424 21.4874C19.652 21.4665 19.6571 21.4438 19.6575 21.4208L19.6788 19.626L19.6936 19.6138L22.0966 17.4489L24.0297 17.6598L24.161 17.7956L25.3077 18.983L25.4771 19.158L24.4097 20.119C24.3891 20.1372 24.3733 20.1602 24.3638 20.186C24.3543 20.2117 24.3514 20.2394 24.3553 20.2666L24.8035 22.9573L24.0799 23.6086L23.9479 23.7269L23.3311 23.3634L23.0805 23.2173L21.4139 22.2357C21.3751 22.2129 21.329 22.2059 21.2852 22.2161C21.2558 22.223 21.2286 22.2372 21.2062 22.2573L19.1595 24.0995L18.9398 24.2975L18.3863 24.7961L17.9533 25.2054L17.9481 25.2066L16.8333 24.0551ZM24.4149 17.5675L25.2677 16.7999C25.4215 16.6623 25.5995 16.5543 25.7926 16.4815L29.5169 15.0604L29.9826 15.8782L26.8973 17.636C26.7291 17.7317 26.5717 17.8453 26.4278 17.9747L25.5622 18.754L24.4149 17.5675Z" fill="currentColor"/>
            </g>
        </g>
        <defs>
            <clipPath id="clip0">
                <rect width="20" height="13.7231" fill="white" transform="translate(12 15)"/>
            </clipPath>
        </defs>
    </g>
</svg>
