<svg xmlns="http://www.w3.org/2000/svg" xmlns:xlink="http://www.w3.org/1999/xlink" width="44" height="44" viewBox="0 0 44 44">
<g id="Gauge" stroke="none" stroke-width="1" fill="none" fill-rule="evenodd">
        <path d="M22 9C19.4288 9 16.9154 9.76244 14.7776 11.1909C12.6398 12.6194 10.9735 14.6497 9.98957 17.0251C9.00563 19.4006 8.74819 22.0144 9.2498 24.5362C9.7514 27.0579 10.9895 29.3743 12.8076 31.1924C14.6257 33.0105 16.9421 34.2486 19.4638 34.7502C21.9856 35.2518 24.5994 34.9944 26.9749 34.0104C29.3503 33.0265 31.3806 31.3602 32.8091 29.2224C34.2376 27.0846 35 24.5712 35 22C34.9961 18.5534 33.6253 15.249 31.1881 12.8119C28.751 10.3747 25.4466 9.00386 22 9ZM22 34.0714C19.6125 34.0714 17.2786 33.3634 15.2935 32.037C13.3083 30.7106 11.7611 28.8253 10.8475 26.6195C9.9338 24.4138 9.69475 21.9866 10.1605 19.645C10.6263 17.3034 11.776 15.1524 13.4642 13.4642C15.1524 11.776 17.3034 10.6263 19.645 10.1605C21.9866 9.69474 24.4138 9.9338 26.6195 10.8475C28.8253 11.7611 30.7106 13.3083 32.037 15.2935C33.3635 17.2786 34.0714 19.6125 34.0714 22C34.0677 25.2004 32.7948 28.2687 30.5317 30.5317C28.2687 32.7947 25.2004 34.0677 22 34.0714ZM33.1429 22C33.1464 23.4613 32.8606 24.9088 32.3018 26.259C31.7431 27.6093 30.9225 28.8355 29.8874 29.8669C29.8839 29.8707 29.8828 29.8756 29.8793 29.8792C29.7922 29.9663 29.6741 30.0152 29.551 30.0152C29.4279 30.0152 29.3098 29.9663 29.2227 29.8792L29.2209 29.8774L28.5663 29.2225C28.5221 29.1797 28.4868 29.1284 28.4626 29.0718C28.4384 29.0152 28.4257 28.9544 28.4252 28.8928C28.4248 28.8312 28.4365 28.7702 28.4599 28.7132C28.4832 28.6563 28.5177 28.6045 28.5612 28.561C28.6047 28.5174 28.6565 28.483 28.7135 28.4596C28.7704 28.4363 28.8315 28.4245 28.893 28.425C28.9546 28.4254 29.0154 28.4382 29.0721 28.4624C29.1287 28.4866 29.1799 28.5218 29.2228 28.566L29.5333 28.8766C31.148 27.1196 32.0896 24.8484 32.1916 22.4643H30.8214C30.6983 22.4643 30.5802 22.4154 30.4931 22.3283C30.4061 22.2412 30.3571 22.1231 30.3571 22C30.3571 21.8769 30.4061 21.7588 30.4931 21.6717C30.5802 21.5846 30.6983 21.5357 30.8214 21.5357H32.2025C32.0957 19.1499 31.1531 16.8777 29.5397 15.1169L29.2227 15.434C29.1352 15.5189 29.0178 15.566 28.8959 15.565C28.774 15.5641 28.6573 15.5153 28.5711 15.429C28.4849 15.3428 28.4361 15.2262 28.4352 15.1043C28.4343 14.9824 28.4813 14.865 28.5662 14.7775L28.8832 14.4604C27.1224 12.8469 24.8502 11.9043 22.4643 11.7975V13.1786C22.4643 13.3017 22.4154 13.4198 22.3283 13.5069C22.2412 13.5939 22.1231 13.6429 22 13.6429C21.8769 13.6429 21.7588 13.5939 21.6717 13.5069C21.5846 13.4198 21.5357 13.3017 21.5357 13.1786V11.7975C19.1499 11.9043 16.8777 12.8469 15.1169 14.4603L15.434 14.7775C15.478 14.8204 15.5131 14.8716 15.5372 14.9282C15.5612 14.9847 15.5738 15.0455 15.5742 15.107C15.5746 15.1684 15.5628 15.2294 15.5394 15.2862C15.5161 15.3431 15.4817 15.3947 15.4382 15.4382C15.3948 15.4817 15.3431 15.5161 15.2862 15.5394C15.2294 15.5628 15.1684 15.5746 15.107 15.5742C15.0455 15.5738 14.9847 15.5612 14.9282 15.5371C14.8716 15.5131 14.8204 15.478 14.7775 15.434L14.4603 15.1169C12.8469 16.8777 11.9043 19.1499 11.7975 21.5357H13.1786C13.3017 21.5357 13.4198 21.5846 13.5069 21.6717C13.5939 21.7588 13.6429 21.8769 13.6429 22C13.6429 22.1231 13.5939 22.2412 13.5069 22.3283C13.4198 22.4154 13.3017 22.4643 13.1786 22.4643H11.8084C11.9104 24.8484 12.852 27.1197 14.4668 28.8767L14.7775 28.566C14.8204 28.522 14.8716 28.4869 14.9282 28.4628C14.9847 28.4388 15.0455 28.4262 15.107 28.4258C15.1684 28.4254 15.2294 28.4372 15.2862 28.4606C15.3431 28.4839 15.3948 28.5183 15.4382 28.5618C15.4817 28.6052 15.5161 28.6569 15.5394 28.7138C15.5628 28.7706 15.5746 28.8316 15.5742 28.893C15.5738 28.9545 15.5612 29.0153 15.5372 29.0718C15.5131 29.1284 15.478 29.1796 15.434 29.2225L14.7773 29.8792C14.6902 29.9663 14.5721 30.0152 14.449 30.0152C14.3259 30.0152 14.2078 29.9663 14.1208 29.8792C14.1171 29.8756 14.1161 29.8707 14.1126 29.867C12.0296 27.7819 10.8589 24.9557 10.8572 22.0084C10.8556 19.0612 12.0232 16.2337 14.1039 14.1463C14.1108 14.1384 14.1132 14.1284 14.1208 14.1209C14.1283 14.1135 14.1383 14.1109 14.1461 14.1041C16.2311 12.0249 19.0555 10.8573 22 10.8573C24.9445 10.8573 27.7689 12.0249 29.8539 14.1041C29.8618 14.1109 29.8718 14.1134 29.8793 14.1209C29.8867 14.1285 29.8892 14.1385 29.8961 14.1463C31.9767 16.2303 33.1445 19.0552 33.1429 22ZM27.2527 16.0906L22.5968 20.7467C22.4108 20.6559 22.2069 20.6082 22 20.6071C21.7245 20.6071 21.4552 20.6888 21.2262 20.8419C20.9971 20.9949 20.8186 21.2125 20.7132 21.467C20.6077 21.7215 20.5802 22.0015 20.6339 22.2717C20.6877 22.5419 20.8203 22.7901 21.0151 22.9849C21.2099 23.1797 21.4581 23.3123 21.7283 23.3661C21.9985 23.4198 22.2785 23.3923 22.533 23.2868C22.7875 23.1814 23.0051 23.0029 23.1581 22.7738C23.3112 22.5448 23.3929 22.2755 23.3929 22C23.3918 21.7931 23.3441 21.5891 23.2533 21.4032L27.9092 16.7471C27.9938 16.6595 28.0406 16.5422 28.0395 16.4205C28.0385 16.2988 27.9896 16.1823 27.9035 16.0962C27.8175 16.0101 27.701 15.9613 27.5793 15.9603C27.4575 15.9592 27.3403 16.006 27.2527 16.0906ZM22 22.4643C21.9082 22.4643 21.8184 22.4371 21.7421 22.386C21.6657 22.335 21.6062 22.2625 21.5711 22.1777C21.5359 22.0928 21.5267 21.9995 21.5446 21.9094C21.5626 21.8194 21.6068 21.7366 21.6717 21.6717C21.7366 21.6068 21.8194 21.5625 21.9094 21.5446C21.9995 21.5267 22.0928 21.5359 22.1777 21.5711C22.2625 21.6062 22.335 21.6657 22.386 21.7421C22.4371 21.8184 22.4643 21.9082 22.4643 22C22.4641 22.1231 22.4152 22.2411 22.3281 22.3281C22.2411 22.4152 22.1231 22.4641 22 22.4643Z" fill="currentColor"/>
        <path d="M19.9006 30.88C20.0966 31.084 20.3606 31.152 20.7206 31.152C21.0806 31.152 21.3446 31.06 21.5326 30.852C21.7046 30.664 21.7726 30.42 21.7726 30.164C21.7726 29.872 21.6926 29.64 21.5286 29.468C21.3726 29.304 21.1486 29.216 20.7326 29.216C20.5966 29.216 20.4446 29.22 20.3046 29.228C20.3526 29.036 20.4686 28.908 20.6926 28.796C20.9166 28.684 21.2606 28.608 21.5806 28.572V28.016C20.9366 28.088 20.4486 28.228 20.1126 28.504C19.7806 28.776 19.6166 29.16 19.6166 29.984C19.6166 30.392 19.7126 30.688 19.9006 30.88ZM20.2166 30.056C20.2166 29.92 20.2166 29.844 20.2246 29.76C20.3046 29.756 20.5006 29.748 20.6606 29.748C20.8806 29.748 20.9926 29.768 21.0726 29.848C21.1566 29.936 21.1726 30.032 21.1726 30.164C21.1726 30.296 21.1526 30.4 21.0606 30.496C20.9726 30.588 20.8566 30.612 20.7206 30.612C20.5606 30.612 20.4206 30.588 20.3366 30.484C20.2486 30.376 20.2166 30.268 20.2166 30.056Z" fill="currentColor"/>
        <path d="M22.3338 31.084H24.4498V30.524H23.1418C23.4258 30.26 23.6538 30.044 23.8938 29.788C24.1858 29.476 24.3458 29.24 24.3458 28.832C24.3458 28.624 24.2698 28.38 24.1018 28.236C23.9138 28.072 23.6978 28 23.2698 28C23.0018 28 22.6138 28.068 22.3898 28.112V28.672C22.5938 28.632 22.9618 28.56 23.2098 28.56C23.4018 28.56 23.5538 28.572 23.6458 28.652C23.7218 28.716 23.7418 28.796 23.7418 28.888C23.7418 29.032 23.6698 29.136 23.5658 29.264C23.2858 29.608 22.6458 30.228 22.3338 30.524V31.084Z" fill="currentColor"/>
    </g>
</svg>
