<svg xmlns="http://www.w3.org/2000/svg" xmlns:xlink="http://www.w3.org/1999/xlink" width="44" height="44" viewBox="0 0 44 44">
<g id="IconPhoneDark" stroke="none" stroke-width="1" fill="none" fill-rule="evenodd">
        <path fill-rule="evenodd" clip-rule="evenodd" d="M17.7967 26.1948C22.2122 30.6081 25.9486 30.9509 26.9878 30.9509C27.1754 30.9509 27.2914 30.9404 27.3398 30.936L27.3413 30.9358C27.7445 30.8884 28.1304 30.7914 28.525 30.6383C28.9497 30.4723 29.34 30.2502 29.6892 29.9764L29.8402 29.8578C29.8531 29.847 29.866 29.8363 29.8768 29.8255L30.4999 29.2132C31.1532 28.5621 31.1683 27.5164 30.5344 26.8825L27.8308 24.1746C27.5397 23.8835 27.1365 23.724 26.701 23.724C26.2461 23.724 25.8084 23.9029 25.498 24.2134L24.3445 25.3669C24.2992 25.4143 24.2259 25.4229 24.1548 25.3841C23.3118 24.9184 22.1583 24.2781 20.9359 23.0556C19.7196 21.8393 19.0773 20.6809 18.6056 19.83L18.6009 19.8216C18.5686 19.7655 18.5772 19.6922 18.6246 19.6448L19.7781 18.4913C20.4292 17.8381 20.4443 16.7903 19.8126 16.1564L17.1089 13.4528C16.8179 13.1617 16.4169 13 15.9792 13C15.5243 13 15.0866 13.1789 14.7761 13.4916L14.1121 14.1599C14.0884 14.1836 14.0668 14.2117 14.0496 14.2397L14 14.3216C13.7369 14.6644 13.5192 15.0504 13.351 15.4751C13.1979 15.8804 13.1009 16.2642 13.0578 16.6501C12.6891 19.6966 14.0625 22.4627 17.7967 26.1948ZM14.7225 14.7895L14.7591 14.7313L15.3887 14.0996C15.5374 13.9486 15.753 13.8624 15.9794 13.8624C16.1842 13.8624 16.3697 13.9335 16.499 14.0629L19.2026 16.7644C19.5002 17.0641 19.4851 17.5643 19.1681 17.8812L18.0147 19.0347C17.6956 19.3559 17.6266 19.8539 17.8487 20.2442L17.8497 20.246C18.3433 21.1384 19.0203 22.3623 20.3259 23.6658C21.6297 24.9695 22.8414 25.642 23.7415 26.1416L23.7518 26.1473C24.1442 26.3629 24.6379 26.2939 24.9549 25.977L26.1083 24.8235C26.2593 24.6748 26.4749 24.5885 26.7012 24.5885C26.9082 24.5885 27.0936 24.6597 27.223 24.7869L29.9288 27.4905C30.2241 27.788 30.2091 28.2861 29.8964 28.5987L29.2928 29.1916L29.1591 29.2951C28.8766 29.5172 28.5597 29.6983 28.2148 29.8319C27.8892 29.9591 27.5701 30.0389 27.2467 30.0777L27.2464 30.0778C27.1696 30.0852 23.2862 30.4615 18.4049 25.5825C14.8842 22.0595 13.5819 19.5025 13.914 16.7493C13.9485 16.4324 14.0282 16.1154 14.1533 15.7834C14.2913 15.4341 14.4745 15.1129 14.6944 14.8304C14.7052 14.8175 14.7138 14.8046 14.7225 14.7895Z" fill="currentColor"/>
        <path d="M17.7967 26.1948L17.9734 26.0179L17.9734 26.0179L17.7967 26.1948ZM27.3398 30.936L27.3172 30.687L27.3171 30.687L27.3398 30.936ZM27.3413 30.9358L27.364 31.1849L27.3706 31.1841L27.3413 30.9358ZM28.525 30.6383L28.6154 30.8714L28.616 30.8711L28.525 30.6383ZM29.6892 29.9764L29.8435 30.1731L29.8437 30.173L29.6892 29.9764ZM29.8402 29.8578L29.9947 30.0545L30.0002 30.0499L29.8402 29.8578ZM29.8768 29.8255L29.7016 29.6472L29.7 29.6487L29.8768 29.8255ZM30.4999 29.2132L30.6751 29.3915L30.6764 29.3902L30.4999 29.2132ZM30.5344 26.8825L30.3575 27.0592L30.3576 27.0593L30.5344 26.8825ZM27.8308 24.1746L28.0077 23.9979L28.0075 23.9978L27.8308 24.1746ZM25.498 24.2134L25.3212 24.0366L25.498 24.2134ZM24.3445 25.3669L24.1677 25.19L24.1637 25.1942L24.3445 25.3669ZM24.1548 25.3841L24.0339 25.6029L24.0351 25.6036L24.1548 25.3841ZM20.9359 23.0556L20.7591 23.2324H20.7591L20.9359 23.0556ZM18.6056 19.83L18.8242 19.7088L18.8242 19.7088L18.6056 19.83ZM18.6009 19.8216L18.8196 19.7003L18.8174 19.6967L18.6009 19.8216ZM18.6246 19.6448L18.8014 19.8216L18.6246 19.6448ZM19.7781 18.4913L19.9549 18.6681L19.9551 18.6678L19.7781 18.4913ZM19.8126 16.1564L19.9897 15.9799L19.9893 15.9796L19.8126 16.1564ZM17.1089 13.4528L17.2857 13.276V13.276L17.1089 13.4528ZM14.7761 13.4916L14.9535 13.6678L14.9535 13.6677L14.7761 13.4916ZM14.1121 14.1599L14.2889 14.3367L14.2894 14.3361L14.1121 14.1599ZM14.0496 14.2397L13.8366 14.1087L13.8357 14.1103L14.0496 14.2397ZM14 14.3216L14.1983 14.4738L14.2067 14.4629L14.2139 14.4511L14 14.3216ZM13.351 15.4751L13.1185 15.3831L13.1171 15.3868L13.351 15.4751ZM13.0578 16.6501L13.306 16.6802L13.3063 16.6779L13.0578 16.6501ZM14.7591 14.7313L14.582 14.5548L14.5624 14.5745L14.5476 14.5981L14.7591 14.7313ZM14.7225 14.7895L14.5107 14.6562L14.5054 14.6654L14.7225 14.7895ZM15.3887 14.0996L15.5658 14.276L15.5667 14.2751L15.3887 14.0996ZM16.499 14.0629L16.3222 14.2397L16.3223 14.2398L16.499 14.0629ZM19.2026 16.7644L19.3801 16.5882L19.3794 16.5875L19.2026 16.7644ZM19.1681 17.8812L18.9914 17.7044L19.1681 17.8812ZM18.0147 19.0347L17.8379 18.8579L17.8373 18.8585L18.0147 19.0347ZM17.8487 20.2442L18.0675 20.1232L18.066 20.1205L17.8487 20.2442ZM17.8497 20.246L17.6309 20.367L17.6309 20.367L17.8497 20.246ZM20.3259 23.6658L20.5027 23.489L20.5026 23.4888L20.3259 23.6658ZM23.7415 26.1416L23.8629 25.923L23.8629 25.923L23.7415 26.1416ZM23.7518 26.1473L23.6305 26.3659L23.6314 26.3664L23.7518 26.1473ZM24.9549 25.977L24.7781 25.8002L24.9549 25.977ZM26.1083 24.8235L25.9328 24.6455L25.9316 24.6468L26.1083 24.8235ZM27.223 24.7869L27.3997 24.61L27.3983 24.6086L27.223 24.7869ZM29.9288 27.4905L30.1062 27.3144L30.1055 27.3137L29.9288 27.4905ZM29.8964 28.5987L30.0716 28.7771L30.0732 28.7755L29.8964 28.5987ZM29.2928 29.1916L29.4458 29.3893L29.4574 29.3803L29.4679 29.37L29.2928 29.1916ZM29.1591 29.2951L29.006 29.0974L29.0046 29.0986L29.1591 29.2951ZM28.2148 29.8319L28.1244 29.5988L28.1238 29.5991L28.2148 29.8319ZM27.2467 30.0777L27.2702 30.3267L27.2765 30.3259L27.2467 30.0777ZM27.2464 30.0778L27.223 29.8289L27.2223 29.8289L27.2464 30.0778ZM18.4049 25.5825L18.2281 25.7592L18.2282 25.7593L18.4049 25.5825ZM13.914 16.7493L14.1622 16.7792L14.1625 16.7763L13.914 16.7493ZM14.1533 15.7834L13.9207 15.6915L13.9193 15.6953L14.1533 15.7834ZM14.6944 14.8304L14.5023 14.6703L14.4972 14.6769L14.6944 14.8304ZM26.9878 30.7009C26.0086 30.7009 22.3378 30.3802 17.9734 26.0179L17.62 26.3716C22.0866 30.836 25.8885 31.2009 26.9878 31.2009V30.7009ZM27.3171 30.687C27.2729 30.691 27.1651 30.7009 26.9878 30.7009V31.2009C27.1857 31.2009 27.3098 31.1897 27.3624 31.1849L27.3171 30.687ZM27.3187 30.6868L27.3172 30.687L27.3624 31.1849L27.364 31.1848L27.3187 30.6868ZM28.4346 30.4052C28.0589 30.551 27.6935 30.6427 27.3121 30.6875L27.3706 31.1841C27.7956 31.1341 28.202 31.0317 28.6154 30.8714L28.4346 30.4052ZM29.535 29.7796C29.2054 30.0381 28.8365 30.2481 28.434 30.4054L28.616 30.8711C29.0629 30.6964 29.4746 30.4624 29.8435 30.1731L29.535 29.7796ZM29.6857 29.6612L29.5348 29.7798L29.8437 30.173L29.9946 30.0544L29.6857 29.6612ZM29.7 29.6487C29.7002 29.6485 29.699 29.6497 29.6952 29.653C29.6914 29.6564 29.687 29.6601 29.6801 29.6658L30.0002 30.0499C30.0111 30.0408 30.0333 30.0226 30.0536 30.0023L29.7 29.6487ZM30.3247 29.0349L29.7016 29.6472L30.052 30.0038L30.6751 29.3915L30.3247 29.0349ZM30.3576 27.0593C30.8891 27.5908 30.8834 28.4779 30.3234 29.0361L30.6764 29.3902C31.4229 28.6462 31.4474 27.442 30.7112 26.7057L30.3576 27.0593ZM27.6538 24.3512L30.3575 27.0592L30.7113 26.7059L28.0077 23.9979L27.6538 24.3512ZM26.701 23.974C27.0753 23.974 27.4133 24.1107 27.654 24.3514L28.0075 23.9978C27.6661 23.6564 27.1977 23.474 26.701 23.474V23.974ZM25.6747 24.3902C25.9368 24.1281 26.3103 23.974 26.701 23.974V23.474C26.1819 23.474 25.68 23.6778 25.3212 24.0366L25.6747 24.3902ZM24.5213 25.5436L25.6747 24.3902L25.3212 24.0366L24.1677 25.1901L24.5213 25.5436ZM24.0351 25.6036C24.1838 25.6847 24.3862 25.6852 24.5253 25.5395L24.1637 25.1942C24.184 25.1729 24.2106 25.1614 24.2349 25.159C24.258 25.1567 24.2717 25.1631 24.2745 25.1646L24.0351 25.6036ZM20.7591 23.2324C22.0077 24.481 23.1871 25.1352 24.0339 25.6029L24.2757 25.1653C23.4364 24.7016 22.3089 24.0752 21.1126 22.8788L20.7591 23.2324ZM18.3869 19.9513C18.8604 20.8052 19.5165 21.9899 20.7591 23.2324L21.1126 22.8788C19.9226 21.6888 19.2943 20.5566 18.8242 19.7088L18.3869 19.9513ZM18.3823 19.9428L18.3869 19.9513L18.8242 19.7088L18.8195 19.7004L18.3823 19.9428ZM18.4478 19.468C18.3197 19.5962 18.296 19.7934 18.3844 19.9465L18.8174 19.6967C18.8411 19.7377 18.8347 19.7883 18.8014 19.8216L18.4478 19.468ZM19.6013 18.3146L18.4478 19.468L18.8014 19.8216L19.9549 18.6681L19.6013 18.3146ZM19.6355 16.3329C20.1651 16.8643 20.1598 17.7542 19.601 18.3149L19.9551 18.6678C20.6986 17.9219 20.7234 16.7162 19.9897 15.9799L19.6355 16.3329ZM16.9322 13.6295L19.6358 16.3332L19.9893 15.9796L17.2857 13.276L16.9322 13.6295ZM15.9792 13.25C16.3546 13.25 16.6908 13.3881 16.9322 13.6295L17.2857 13.276C16.945 12.9353 16.4792 12.75 15.9792 12.75V13.25ZM14.9535 13.6677C15.2154 13.404 15.5885 13.25 15.9792 13.25V12.75C15.46 12.75 14.9578 12.9539 14.5988 13.3154L14.9535 13.6677ZM14.2894 14.3361L14.9535 13.6678L14.5988 13.3154L13.9347 13.9837L14.2894 14.3361ZM14.2625 14.3707C14.2706 14.3575 14.2804 14.3452 14.2889 14.3367L13.9353 13.9832C13.8964 14.0221 13.863 14.0658 13.8367 14.1087L14.2625 14.3707ZM14.2139 14.4511L14.2634 14.3692L13.8357 14.1103L13.7861 14.1922L14.2139 14.4511ZM13.5835 15.5671C13.7435 15.163 13.95 14.7975 14.1983 14.4738L13.8016 14.1694C13.5239 14.5314 13.2949 14.9377 13.1186 15.3831L13.5835 15.5671ZM13.3063 16.6779C13.3467 16.3156 13.4381 15.9522 13.5849 15.5634L13.1171 15.3868C12.9578 15.8086 12.8551 16.2128 12.8094 16.6224L13.3063 16.6779ZM17.9734 26.0179C14.2556 22.3023 12.9515 19.6095 13.306 16.6802L12.8096 16.6201C12.4268 19.7836 13.8694 22.6232 17.62 26.3716L17.9734 26.0179ZM14.5476 14.5981L14.5109 14.6563L14.934 14.9227L14.9707 14.8645L14.5476 14.5981ZM15.2116 13.9231L14.582 14.5548L14.9362 14.9077L15.5657 14.276L15.2116 13.9231ZM15.9794 13.6124C15.6916 13.6124 15.4101 13.7217 15.2106 13.9241L15.5667 14.2751C15.6648 14.1756 15.8145 14.1124 15.9794 14.1124V13.6124ZM16.6758 13.8861C16.4934 13.7037 16.2413 13.6124 15.9794 13.6124V14.1124C16.1272 14.1124 16.2459 14.1634 16.3222 14.2397L16.6758 13.8861ZM19.3794 16.5875L16.6757 13.8861L16.3223 14.2398L19.0259 16.9412L19.3794 16.5875ZM19.3449 18.058C19.7495 17.6534 19.784 16.9952 19.3801 16.5882L19.0252 16.9405C19.2163 17.133 19.2207 17.4751 18.9914 17.7044L19.3449 18.058ZM18.1915 19.2114L19.3449 18.058L18.9914 17.7044L17.8379 18.8579L18.1915 19.2114ZM18.066 20.1205C17.9003 19.8295 17.9508 19.4538 18.1921 19.2108L17.8373 18.8585C17.4404 19.258 17.3529 19.8784 17.6314 20.3678L18.066 20.1205ZM18.0684 20.125L18.0674 20.1232L17.6299 20.3652L17.6309 20.367L18.0684 20.125ZM20.5026 23.4888C19.2232 22.2116 18.5601 21.0139 18.0684 20.125L17.6309 20.367C18.1265 21.2629 18.8174 22.5129 20.1493 23.8427L20.5026 23.4888ZM23.8629 25.923C22.9663 25.4254 21.7804 24.7667 20.5027 23.489L20.1491 23.8425C21.4789 25.1723 22.7165 25.8586 23.6202 26.3602L23.8629 25.923ZM23.8731 25.9287L23.8629 25.923L23.6202 26.3602L23.6305 26.3659L23.8731 25.9287ZM24.7781 25.8002C24.5402 26.0381 24.1677 26.0906 23.8722 25.9282L23.6314 26.3664C24.1208 26.6353 24.7357 26.5497 25.1316 26.1538L24.7781 25.8002ZM25.9316 24.6468L24.7781 25.8002L25.1316 26.1538L26.2851 25.0003L25.9316 24.6468ZM26.7012 24.3385C26.4132 24.3385 26.1333 24.4479 25.9328 24.6455L26.2838 25.0016C26.3852 24.9016 26.5366 24.8385 26.7012 24.8385V24.3385ZM27.3983 24.6086C27.2161 24.4295 26.9647 24.3385 26.7012 24.3385V24.8385C26.8517 24.8385 26.9712 24.8899 27.0477 24.9651L27.3983 24.6086ZM30.1055 27.3137L27.3997 24.61L27.0463 24.9637L29.7521 27.6674L30.1055 27.3137ZM30.0732 28.7755C30.4739 28.3748 30.5076 27.7188 30.1062 27.3144L29.7514 27.6666C29.9407 27.8573 29.9442 28.1973 29.7197 28.4219L30.0732 28.7755ZM29.4679 29.37L30.0716 28.7771L29.7213 28.4203L29.1176 29.0132L29.4679 29.37ZM29.3121 29.4928L29.4458 29.3893L29.1397 28.9939L29.006 29.0974L29.3121 29.4928ZM28.3051 30.0651C28.673 29.9225 29.0116 29.7291 29.3136 29.4916L29.0046 29.0986C28.7417 29.3052 28.4465 29.474 28.1244 29.5988L28.3051 30.0651ZM27.2765 30.3259C27.6214 30.2845 27.9611 30.1995 28.3057 30.0648L28.1238 29.5991C27.8173 29.7188 27.5188 29.7933 27.2169 29.8295L27.2765 30.3259ZM27.2699 30.3266L27.2702 30.3266L27.2232 29.8288L27.223 29.8289L27.2699 30.3266ZM18.2282 25.7593C23.1701 30.699 27.1313 30.3401 27.2705 30.3266L27.2223 29.8289C27.208 29.8303 23.4022 30.224 18.5817 25.4056L18.2282 25.7593ZM13.6658 16.7194C13.3193 19.5922 14.6942 22.2232 18.2281 25.7592L18.5818 25.4057C15.0741 21.8959 13.8446 19.4128 14.1622 16.7792L13.6658 16.7194ZM13.9193 15.6953C13.788 16.0439 13.7025 16.3814 13.6654 16.7222L14.1625 16.7763C14.1944 16.4833 14.2684 16.187 14.3872 15.8715L13.9193 15.6953ZM14.4972 14.6769C14.2622 14.9786 14.0673 15.3207 13.9208 15.6915L14.3858 15.8753C14.5153 15.5475 14.6868 15.2472 14.8917 14.984L14.4972 14.6769ZM14.5054 14.6654C14.5036 14.6685 14.5028 14.6698 14.5025 14.6702C14.5024 14.6704 14.5024 14.6704 14.5024 14.6704L14.8865 14.9905C14.9086 14.9639 14.9253 14.9383 14.9395 14.9135L14.5054 14.6654Z" fill="currentColor"/>
    </g>
</svg>
