<svg xmlns="http://www.w3.org/2000/svg" xmlns:xlink="http://www.w3.org/1999/xlink" width="44" height="44" viewBox="0 0 44 44">
<g id="IconLocation" stroke="none" stroke-width="1" fill="none" fill-rule="evenodd">
        <path fill-rule="evenodd" clip-rule="evenodd" d="M22 32.4683L15.139 23.1244L14.7 22.2854C14.302 21.4027 14.0697 20.4545 14.0146 19.4878C14.0049 19.3252 14 19.1626 14 19C14 14.5817 17.5817 11 22 11C26.4183 11 30 14.5817 30 19C30 19.1634 30 19.3244 29.9854 19.4878C29.9306 20.4503 29.6991 21.3945 29.3024 22.2732V22.3L28.8293 23.178L22 32.4683ZM15.973 22.6464L21.9998 30.8366L28.0242 22.6415L28.4339 21.861C28.7776 21.0906 28.9784 20.2642 29.0266 19.422C29.0266 19.35 29.0303 19.2793 29.0339 19.2086L29.0339 19.2085C29.0376 19.1378 29.0413 19.0671 29.0413 18.9951C29.0413 15.1062 25.8887 11.9537 21.9998 11.9537C18.1109 11.9537 14.9583 15.1062 14.9583 18.9951C14.9583 19.1382 14.9632 19.2797 14.973 19.4195C15.0234 20.2619 15.2258 21.0883 15.5705 21.8586L15.973 22.6464ZM21.9554 22.0195C20.4878 22.0205 19.1643 21.1369 18.6025 19.7811C18.0406 18.4254 18.3512 16.8646 19.3893 15.8272C20.4274 14.7899 21.9883 14.4803 23.3437 15.0431C24.6991 15.6058 25.5818 16.93 25.5798 18.3975C25.5758 20.3972 23.955 22.0168 21.9554 22.0195ZM21.9553 15.7292C20.4833 15.7292 19.2899 16.9223 19.2895 18.3943C19.289 19.8663 20.4817 21.06 21.9537 21.0609C23.4257 21.0618 24.6198 19.8695 24.6212 18.3975C24.6212 16.9248 23.428 15.7306 21.9553 15.7292Z" fill="white"/>
        <path d="M15.139 23.1244L14.9618 23.2171L14.9688 23.2305L14.9778 23.2428L15.139 23.1244ZM22 32.4683L21.8388 32.5867L21.9999 32.8061L22.1611 32.5868L22 32.4683ZM14.7 22.2854L14.5174 22.3677L14.5228 22.3781L14.7 22.2854ZM14.0146 19.4878L14.2143 19.4764L14.2143 19.4758L14.0146 19.4878ZM29.9854 19.4878L29.7861 19.47L29.7857 19.4764L29.9854 19.4878ZM29.3024 22.2732L29.1201 22.1909L29.1024 22.2301V22.2732H29.3024ZM29.3024 22.3L29.4785 22.3949L29.5024 22.3505V22.3H29.3024ZM28.8293 23.178L28.9904 23.2965L28.9987 23.2852L29.0053 23.2729L28.8293 23.178ZM21.9998 30.8366L21.8387 30.9551L21.9999 31.1742L22.1609 30.9551L21.9998 30.8366ZM15.973 22.6464L15.7949 22.7373L15.8023 22.7518L15.8119 22.7649L15.973 22.6464ZM28.0242 22.6415L28.1853 22.7599L28.1943 22.7478L28.2013 22.7345L28.0242 22.6415ZM28.4339 21.861L28.6114 21.9542L28.6166 21.9425L28.4339 21.861ZM29.0266 19.422L29.2266 19.4334V19.422H29.0266ZM29.0339 19.2086L28.8342 19.198L28.8342 19.1982L29.0339 19.2086ZM29.0339 19.2085L29.2337 19.219L29.2337 19.2188L29.0339 19.2085ZM14.973 19.4195L15.1726 19.4076L15.1725 19.4056L14.973 19.4195ZM15.5705 21.8586L15.3877 21.9404L15.3924 21.9495L15.5705 21.8586ZM18.6025 19.7811L18.4177 19.8577L18.6025 19.7811ZM21.9554 22.0195L21.9555 22.2195H21.9557L21.9554 22.0195ZM19.3893 15.8272L19.2479 15.6858L19.3893 15.8272ZM23.3437 15.0431L23.4204 14.8584L23.3437 15.0431ZM25.5798 18.3975L25.7798 18.3979V18.3978L25.5798 18.3975ZM19.2895 18.3943L19.4895 18.3943L19.2895 18.3943ZM21.9553 15.7292L21.9555 15.5292H21.9553V15.7292ZM21.9537 21.0609L21.9536 21.2609L21.9537 21.0609ZM24.6212 18.3975L24.8212 18.3977V18.3975H24.6212ZM14.9778 23.2428L21.8388 32.5867L22.1612 32.3499L15.3002 23.006L14.9778 23.2428ZM14.5228 22.3781L14.9618 23.2171L15.3162 23.0317L14.8772 22.1926L14.5228 22.3781ZM13.815 19.4992C13.8714 20.4903 14.1096 21.4626 14.5177 22.3676L14.8823 22.2032C14.4944 21.3429 14.268 20.4186 14.2143 19.4764L13.815 19.4992ZM13.8 19C13.8 19.1666 13.805 19.3332 13.815 19.4998L14.2143 19.4758C14.2048 19.3172 14.2 19.1586 14.2 19H13.8ZM22 10.8C17.4713 10.8 13.8 14.4713 13.8 19H14.2C14.2 14.6922 17.6922 11.2 22 11.2V10.8ZM30.2 19C30.2 14.4713 26.5287 10.8 22 10.8V11.2C26.3078 11.2 29.8 14.6922 29.8 19H30.2ZM30.1846 19.5056C30.2001 19.3319 30.2 19.162 30.2 19H29.8C29.8 19.1648 29.7999 19.3169 29.7862 19.47L30.1846 19.5056ZM29.4847 22.3555C29.8914 21.4544 30.1288 20.4862 30.185 19.4992L29.7857 19.4764C29.7323 20.4144 29.5067 21.3346 29.1201 22.1909L29.4847 22.3555ZM29.5024 22.3V22.2732H29.1024V22.3H29.5024ZM29.0053 23.2729L29.4785 22.3949L29.1264 22.2051L28.6532 23.0832L29.0053 23.2729ZM22.1611 32.5868L28.9904 23.2965L28.6681 23.0596L21.8389 32.3498L22.1611 32.5868ZM22.1609 30.7181L16.1341 22.5278L15.8119 22.7649L21.8387 30.9551L22.1609 30.7181ZM27.863 22.523L21.8387 30.7181L22.1609 30.9551L28.1853 22.7599L27.863 22.523ZM28.2569 21.768L27.8471 22.5485L28.2013 22.7345L28.611 21.954L28.2569 21.768ZM28.827 19.4105C28.7801 20.2286 28.5851 21.0312 28.2513 21.7795L28.6166 21.9425C28.9701 21.15 29.1767 20.2998 29.2263 19.4334L28.827 19.4105ZM28.8342 19.1982C28.8306 19.2682 28.8266 19.344 28.8266 19.422H29.2266C29.2266 19.356 29.23 19.2904 29.2337 19.2189L28.8342 19.1982ZM28.8342 19.198L28.8342 19.198L29.2337 19.2191L29.2337 19.219L28.8342 19.198ZM28.8413 18.9951C28.8413 19.0611 28.8379 19.1267 28.8342 19.1982L29.2337 19.2188C29.2373 19.1489 29.2413 19.0731 29.2413 18.9951H28.8413ZM21.9998 12.1537C25.7782 12.1537 28.8413 15.2167 28.8413 18.9951H29.2413C29.2413 14.9958 25.9991 11.7537 21.9998 11.7537V12.1537ZM15.1583 18.9951C15.1583 15.2167 18.2214 12.1537 21.9998 12.1537V11.7537C18.0004 11.7537 14.7583 14.9958 14.7583 18.9951H15.1583ZM15.1725 19.4056C15.1631 19.2705 15.1583 19.1337 15.1583 18.9951H14.7583C14.7583 19.1428 14.7634 19.2889 14.7735 19.4335L15.1725 19.4056ZM15.7531 21.7769C15.4183 21.0286 15.2216 20.2259 15.1726 19.4076L14.7733 19.4315C14.8252 20.298 15.0334 21.1479 15.388 21.9402L15.7531 21.7769ZM16.1511 22.5554L15.7486 21.7676L15.3924 21.9495L15.7949 22.7373L16.1511 22.5554ZM18.4177 19.8577C19.0105 21.2883 20.407 22.2205 21.9555 22.2195L21.9553 21.8195C20.5686 21.8204 19.3181 20.9856 18.7872 19.7046L18.4177 19.8577ZM19.2479 15.6858C18.1526 16.7804 17.8249 18.4272 18.4177 19.8577L18.7872 19.7046C18.2564 18.4236 18.5498 16.9489 19.5307 15.9687L19.2479 15.6858ZM23.4204 14.8584C21.9903 14.2646 20.3432 14.5912 19.2479 15.6858L19.5307 15.9687C20.5115 14.9885 21.9864 14.6961 23.267 15.2278L23.4204 14.8584ZM25.7798 18.3978C25.7819 16.8493 24.8506 15.4522 23.4204 14.8584L23.267 15.2278C24.5477 15.7595 25.3817 17.0106 25.3798 18.3973L25.7798 18.3978ZM21.9557 22.2195C24.0655 22.2167 25.7756 20.5078 25.7798 18.3979L25.3798 18.3971C25.376 20.2866 23.8446 21.817 21.9551 21.8195L21.9557 22.2195ZM19.4895 18.3943C19.4899 17.0328 20.5937 15.9292 21.9553 15.9292V15.5292C20.3729 15.5292 19.0899 16.8118 19.0895 18.3942L19.4895 18.3943ZM21.9538 20.8609C20.5922 20.8601 19.489 19.7559 19.4895 18.3943L19.0895 18.3942C19.089 19.9766 20.3711 21.26 21.9536 21.2609L21.9538 20.8609ZM24.4212 18.3973C24.4199 19.7589 23.3154 20.8618 21.9538 20.8609L21.9536 21.2609C23.536 21.2619 24.8197 19.9801 24.8212 18.3977L24.4212 18.3973ZM21.9551 15.9292C23.3174 15.9305 24.4212 17.0352 24.4212 18.3975H24.8212C24.8212 16.8144 23.5386 15.5307 21.9555 15.5292L21.9551 15.9292Z" fill="white"/>
    </g>
</svg>
