<svg xmlns="http://www.w3.org/2000/svg" xmlns:xlink="http://www.w3.org/1999/xlink" width="44" height="44" viewBox="0 0 44 44">
<g id="IconSmallCloseGrey" stroke="none" stroke-width="1" fill="none" fill-rule="evenodd">
        <path fill-rule="evenodd" clip-rule="evenodd" d="M25.8892 17.8891C25.6939 17.6938 25.3774 17.6938 25.1821 17.8891L22.0001 21.0711L18.8181 17.8891C18.6229 17.6938 18.3063 17.6938 18.111 17.8891C17.9158 18.0843 17.9158 18.4009 18.111 18.5962L21.293 21.7782L18.111 24.9602C17.9158 25.1554 17.9158 25.472 18.111 25.6673C18.3063 25.8625 18.6229 25.8625 18.8181 25.6673L22.0001 22.4853L25.1821 25.6673C25.3774 25.8625 25.6939 25.8625 25.8892 25.6673C26.0845 25.472 26.0845 25.1554 25.8892 24.9602L22.7072 21.7782L25.8892 18.5962C26.0845 18.4009 26.0845 18.0843 25.8892 17.8891Z" fill="currentColor"/>
    </g>
</svg>
