<svg xmlns="http://www.w3.org/2000/svg" viewBox="151.6020 571.6020 32.7960 32.7960" width="24" height="24" fill="currentColor">
<path d="M155.2797 575.2798C155.9484 574.6111 156.8975 574.3350 158.0000 574.3350L168.0000 574.3350C169.1025 574.3350 170.0515 574.6111 170.7202 575.2798C171.3889 575.9485 171.6650 576.8975 171.6650 578.0000L171.6650 598.0000C171.6650 599.1025 171.3889 600.0515 170.7202 600.7202C170.0515 601.3889 169.1025 601.6650 168.0000 601.6650L158.0000 601.6650C156.8975 601.6650 155.9484 601.3889 155.2797 600.7202C154.6110 600.0515 154.3350 599.1025 154.3350 598.0000L154.3350 578.0000C154.3350 576.8975 154.6110 575.9485 155.2797 575.2798M156.2202 576.2202C155.8889 576.5515 155.6650 577.1025 155.6650 578.0000L155.6650 578.3350L170.3350 578.3350L170.3350 578.0000C170.3350 577.1025 170.1110 576.5515 169.7797 576.2202C169.4484 575.8889 168.8975 575.6650 168.0000 575.6650L158.0000 575.6650C157.1025 575.6650 156.5515 575.8889 156.2202 576.2202M170.3350 579.6650L155.6650 579.6650L155.6650 596.3350L170.3350 596.3350L170.3350 579.6650M155.6650 598.0000C155.6650 598.8975 155.8889 599.4485 156.2202 599.7798C156.5515 600.1111 157.1025 600.3350 158.0000 600.3350L168.0000 600.3350C168.8975 600.3350 169.4484 600.1111 169.7797 599.7798C170.1110 599.4485 170.3350 598.8975 170.3350 598.0000L170.3350 597.6650L155.6650 597.6650L155.6650 598.0000" fill="rgb(0,0,0)"/>
</svg>