<svg xmlns="http://www.w3.org/2000/svg" xmlns:xlink="http://www.w3.org/1999/xlink" width="44" height="44" viewBox="0 0 44 44">
<g id="InfoTip" stroke="none" stroke-width="1" fill="none" fill-rule="evenodd">
        <path fill-rule="evenodd" clip-rule="evenodd" d="M22 29C25.866 29 29 25.866 29 22C29 18.134 25.866 15 22 15C18.134 15 15 18.134 15 22C15 25.866 18.134 29 22 29ZM22 30C26.4183 30 30 26.4183 30 22C30 17.5817 26.4183 14 22 14C17.5817 14 14 17.5817 14 22C14 26.4183 17.5817 30 22 30Z" fill="currentColor"/>
        <path d="M28.8 22C28.8 25.7555 25.7555 28.8 22 28.8V29.2C25.9765 29.2 29.2 25.9765 29.2 22H28.8ZM22 15.2C25.7555 15.2 28.8 18.2445 28.8 22H29.2C29.2 18.0236 25.9765 14.8 22 14.8V15.2ZM15.2 22C15.2 18.2445 18.2445 15.2 22 15.2V14.8C18.0236 14.8 14.8 18.0236 14.8 22H15.2ZM22 28.8C18.2445 28.8 15.2 25.7555 15.2 22H14.8C14.8 25.9765 18.0236 29.2 22 29.2V28.8ZM29.8 22C29.8 26.3078 26.3078 29.8 22 29.8V30.2C26.5287 30.2 30.2 26.5287 30.2 22H29.8ZM22 14.2C26.3078 14.2 29.8 17.6922 29.8 22H30.2C30.2 17.4713 26.5287 13.8 22 13.8V14.2ZM14.2 22C14.2 17.6922 17.6922 14.2 22 14.2V13.8C17.4713 13.8 13.8 17.4713 13.8 22H14.2ZM22 29.8C17.6922 29.8 14.2 26.3078 14.2 22H13.8C13.8 26.5287 17.4713 30.2 22 30.2V29.8Z" fill="currentColor"/>
        <path d="M22 17.6924V18.9232M22 20.1539V26.3078" stroke="currentColor" stroke-width="1.4"/>
    </g>
</svg>
