<svg xmlns="http://www.w3.org/2000/svg" xmlns:xlink="http://www.w3.org/1999/xlink" width="44" height="44" viewBox="0 0 44 44">
<g id="LeatherInterior">
        <g id="Group" opacity="0.5">
            <path id="Union 3" d="M20.973 28.134L15.291 27.334H15.269L14 27.154L14.619 22.754L15.269 18.125V14H28.6V15.808L28.981 15.862L28.6 18.577V27.335H27.373L27.139 29L20.973 28.134ZM16.259 26.345H27.614V14.99H16.259V26.345ZM25.138 24.545H24.916V23.758H25.127V23.55H25.919V24.55L25.138 24.545ZM23.338 24.545V23.758H24.323V24.55L23.338 24.545ZM21.758 24.545V23.758H22.744V24.55L21.758 24.545ZM20.179 24.545V23.758H21.165V24.55L20.179 24.545ZM18.6 24.545V23.758H19.585V24.55L18.6 24.545ZM17.02 24.545V23.758H18V24.55L17.02 24.545ZM25.127 22.952V21.97H25.919V22.956L25.127 22.952ZM25.127 21.373V20.391H25.919V21.377L25.127 21.373ZM25.127 19.793V18.812H25.919V19.8L25.127 19.793ZM17.316 18.045C17.0828 17.8123 16.9375 17.5059 16.9048 17.1781C16.8722 16.8502 16.9543 16.5212 17.137 16.2471C17.3198 15.9729 17.592 15.7707 17.9071 15.6747C18.2223 15.5788 18.561 15.5951 18.8655 15.7209C19.17 15.8467 19.4215 16.0742 19.5771 16.3646C19.7327 16.655 19.7827 16.9904 19.7187 17.3136C19.6547 17.6368 19.4807 17.9278 19.2261 18.137C18.9716 18.3462 18.6525 18.4607 18.323 18.461C17.9455 18.4612 17.5833 18.3116 17.316 18.045ZM17.875 16.592C17.7713 16.6955 17.7068 16.8317 17.6923 16.9775C17.6778 17.1232 17.7144 17.2695 17.7957 17.3914C17.877 17.5132 17.998 17.6031 18.1382 17.6457C18.2783 17.6882 18.4289 17.6809 18.5643 17.6249C18.6996 17.5689 18.8113 17.4676 18.8804 17.3385C18.9495 17.2093 18.9716 17.0602 18.943 16.9165C18.9145 16.7728 18.8369 16.6435 18.7237 16.5506C18.6104 16.4577 18.4685 16.407 18.322 16.407C18.239 16.407 18.1568 16.4233 18.0801 16.455C18.0034 16.4868 17.9337 16.5333 17.875 16.592ZM25.124 18.217V17.232H25.916V18.217H25.124ZM25.124 16.638V15.653H25.916V16.639L25.124 16.638Z" fill="#666666"/>
        </g>
    </g>
</svg>
