<svg xmlns="http://www.w3.org/2000/svg" viewBox="0 0 32 32" width="32" height="32" fill="none">
  <path d="M22.8149 8H9.18111C8.52911 8 8 8.51667 8 9.15289V22.8456C8 23.4827 8.52911 24 9.18111 24H22.8149C23.4673 24 24 23.4827 24 22.8456V9.15289C24 8.51667 23.4673 8 22.8149 8ZM12.7453 21.6342H10.3711V13.9989H12.7453V21.6342ZM11.5582 12.9549C11.3775 12.9549 11.1986 12.9193 11.0316 12.8501C10.8647 12.7809 10.713 12.6795 10.5852 12.5517C10.4575 12.4239 10.3562 12.2721 10.2871 12.1051C10.218 11.9381 10.1825 11.7592 10.1827 11.5784C10.1827 11.2137 10.3276 10.8638 10.5855 10.6059C10.8435 10.3479 11.1933 10.203 11.5581 10.203C11.9229 10.203 12.2728 10.3479 12.5307 10.6059C12.7886 10.8638 12.9336 11.2137 12.9336 11.5784C12.9336 11.9433 12.7887 12.2932 12.5308 12.5513C12.2729 12.8094 11.9231 12.9546 11.5582 12.9549ZM21.6333 21.6342H19.2629V17.9213C19.2629 17.0356 19.2456 15.8967 18.0293 15.8967C16.7942 15.8967 16.606 16.8613 16.606 17.8571V21.6344H14.2338V13.9989H16.5104V15.0416H16.5429C16.8598 14.4416 17.634 13.8084 18.7887 13.8084C21.19 13.8084 21.6336 15.3893 21.6336 17.446L21.6333 21.6342Z" fill="currentColor"/>
</svg>
