<svg xmlns="http://www.w3.org/2000/svg" xmlns:xlink="http://www.w3.org/1999/xlink" width="44" height="44" viewBox="0 0 44 44">
<g id="Passengers">
        <path fill-rule="evenodd" clip-rule="evenodd" d="M18.645 11.3542C18.645 13.2037 20.1498 14.7085 21.9992 14.7085C23.849 14.7085 25.3534 13.2037 25.3534 11.3542C25.3534 9.50479 23.849 8 21.9992 8C20.1498 8 18.645 9.50479 18.645 11.3542ZM19.8024 11.3542C19.8024 10.1429 20.7879 9.15744 21.9992 9.15744C23.2105 9.15744 24.196 10.1429 24.196 11.3542C24.196 12.5655 23.2105 13.551 21.9992 13.551C20.7879 13.551 19.8024 12.5655 19.8024 11.3542ZM18.8894 32.3687C18.8894 34.0823 20.2846 35.4764 21.9998 35.4764C23.7135 35.4764 25.1075 34.0823 25.1079 32.3687V27.4839C26.2834 26.7407 27 25.4587 27 24.0589V19.3599C27 17.1262 25.1829 15.309 22.9491 15.309H21.0509C18.8171 15.309 17 17.1262 17 19.3599V24.0589C17 25.4579 17.7155 26.7388 18.8894 27.4808V32.3687ZM18.1574 19.3599C18.1574 17.7643 19.4553 16.4665 21.0509 16.4665H22.9491C24.5443 16.4665 25.8426 17.7643 25.8426 19.3599V24.0589C25.8426 25.1444 25.2371 26.1314 24.2631 26.6349L23.95 26.7965V32.3687C23.95 33.4442 23.0753 34.3189 21.9998 34.3189C20.9231 34.3189 20.0469 33.4442 20.0469 32.3687V26.7938L19.7338 26.6323C18.7614 26.1295 18.1574 25.1436 18.1574 24.0589V19.3599Z" fill="white"/>
    </g>
</svg>
