<svg xmlns="http://www.w3.org/2000/svg" viewBox="235.3997 155.4018 35.1985 35.1985" width="24" height="24" fill="currentColor">
<path d="M252.2587 158.3350C251.2725 158.3350 250.4522 158.5139 249.8539 158.8668C249.2389 159.2295 248.8350 159.8348 248.8350 160.5351C248.8349 161.0463 248.8349 161.5139 248.9352 162.0043C249.0082 162.3615 249.1302 162.7149 249.3214 163.1114C248.6697 163.6370 248.1158 164.4673 247.4238 165.6680C246.6352 167.0362 246.1021 168.0608 245.9224 168.9763C245.7274 169.9693 245.9530 170.7824 246.4795 171.6935L247.0887 172.7506C246.7203 172.6529 246.2144 172.5182 245.5564 172.3421C243.7232 171.8517 242.7108 171.5971 241.9720 171.4680C241.2107 171.3350 240.7240 171.3350 240.0000 171.3350C239.5531 171.3350 239.1198 171.4748 238.7973 171.7973C238.4747 172.1199 238.3350 172.5531 238.3350 173.0000L238.3349 173.1613C238.3338 174.6645 238.3329 175.7733 239.2798 176.7203C239.7422 177.1828 240.1978 177.4408 240.8610 177.5606C241.4390 177.6650 242.1920 177.6650 243.2303 177.6649L250.0486 177.6649L252.9648 166.7875C253.3008 165.5343 253.4788 164.8504 253.5694 164.3548C253.6650 163.8323 253.6650 163.5093 253.6650 163.0126L253.6650 161.6808L252.7691 158.3350L252.2587 158.3350M252.3350 162.3362C251.6497 162.3415 251.0501 162.3697 250.5093 162.5127C250.3629 162.2055 250.2842 161.9628 250.2382 161.7378C250.1674 161.3915 250.1650 161.0524 250.1650 160.5000C250.1650 160.3727 250.2235 160.1929 250.5295 160.0124C250.7830 159.8629 251.1827 159.7338 251.7538 159.6853L252.3350 161.8558L252.3350 162.3362M247.3960 174.2077L248.0535 174.3800L248.7547 172.9777L247.6310 171.0281C247.2119 170.3029 247.1124 169.8189 247.2275 169.2325C247.3578 168.5685 247.7699 167.7309 248.5761 166.3321C249.4507 164.8147 249.9317 164.2326 250.4346 163.9594C250.8550 163.7310 251.3502 163.6791 252.3207 163.6679C252.3102 163.8081 252.2922 163.9455 252.2612 164.1154C252.1824 164.5457 252.0217 165.1694 251.6802 166.4431L249.0282 176.3349L243.3077 176.3349C242.1706 176.3349 241.5428 176.3323 241.0975 176.2518C240.7232 176.1842 240.5076 176.0672 240.2202 175.7798C239.7009 175.2605 239.6650 174.7384 239.6650 173.0000C239.6650 172.8270 239.7153 172.7602 239.7377 172.7378C239.7602 172.7153 239.8269 172.6650 240.0000 172.6650C240.7231 172.6651 241.0997 172.6658 241.7431 172.7782C242.4130 172.8952 243.3660 173.1329 245.2127 173.6270C246.0209 173.8432 246.6003 173.9972 246.9778 174.0972C247.1665 174.1472 247.3048 174.1837 247.3960 174.2077" fill="currentColor"/>
<path d="M267.6650 161.6808L266.7691 158.3350L266.2587 158.3350C265.2853 158.3350 264.5347 158.5088 264.0233 158.9228C263.4758 159.3661 263.3352 159.9712 263.3352 160.5000L263.3352 160.5901C263.3351 161.5717 263.3351 162.2342 263.4229 162.7216C263.4863 163.0733 263.5955 163.3420 263.7509 163.5851C263.6775 163.6784 263.6043 163.7769 263.5306 163.8807C263.2112 164.3304 262.8568 164.9168 262.4238 165.6680C261.6208 167.0612 261.0875 168.1186 260.7636 169.2277C260.4895 170.1663 260.3733 171.1144 260.3433 172.3007C260.2344 172.2740 260.0889 172.2385 259.9152 172.1970C259.5191 172.1025 258.9751 171.9762 258.3845 171.8498C257.2327 171.6034 255.8107 171.3351 255.0001 171.3351C254.5532 171.3351 254.1200 171.4748 253.7974 171.7974C253.4748 172.1200 253.3351 172.5532 253.3351 173.0001L253.3350 173.1614C253.3339 174.6646 253.3330 175.7734 254.2799 176.7203C254.7165 177.1570 255.1317 177.4223 255.6613 177.5522C256.1229 177.6654 256.6468 177.6652 257.2441 177.6650L264.0486 177.6650L266.9648 166.7876C267.3008 165.5344 267.4788 164.8504 267.5694 164.3548C267.6650 163.8324 267.6650 163.5093 267.6650 163.0127L267.6650 161.6808M266.3350 162.3392C265.7724 162.3534 265.2595 162.4145 264.7768 162.6703C264.7583 162.6145 264.7442 162.5545 264.7318 162.4857C264.6680 162.1316 264.6652 161.5971 264.6652 160.5000C264.6652 160.2011 264.7370 160.0562 264.8602 159.9565C264.9843 159.8560 265.2411 159.7354 265.7542 159.6868L266.3350 161.8558L266.3350 162.3392M260.2263 173.6421L260.3172 173.6651L261.6650 173.6651L261.6650 173.0001C261.6650 171.5308 261.7649 170.5437 262.0403 169.6005C262.3177 168.6504 262.7843 167.7061 263.5761 166.3322C264.0076 165.5834 264.3351 165.0448 264.6150 164.6508C264.8952 164.2561 265.1020 164.0441 265.2797 163.9192C265.5247 163.7470 265.7715 163.6903 266.3203 163.6726C266.3098 163.8112 266.2919 163.9475 266.2612 164.1155C266.1824 164.5458 266.0217 165.1695 265.6802 166.4432L263.0282 176.3350L257.3076 176.3350C256.6239 176.3351 256.2647 176.3307 255.9782 176.2605C255.7434 176.2029 255.5336 176.0932 255.2204 175.7799C254.7011 175.2606 254.6651 174.7385 254.6651 173.0001C254.6651 172.8271 254.7154 172.7603 254.7379 172.7378C254.7603 172.7154 254.8271 172.6651 255.0001 172.6651C255.6434 172.6651 256.9214 172.8969 258.1062 173.1504C258.6838 173.2740 259.2172 173.3978 259.6064 173.4907C259.8009 173.5371 259.9590 173.5758 260.0683 173.6028L260.1940 173.6340L260.2263 173.6421" fill="currentColor"/>
</svg>