<svg xmlns="http://www.w3.org/2000/svg" xmlns:xlink="http://www.w3.org/1999/xlink" width="44" height="44" viewBox="0 0 44 44">
<g id="SmallSeats">
        <g id="Group" opacity="0.5">
            <path d="M19.786 19.2241C19.7275 18.9369 19.5686 18.68 19.3379 18.4994C19.108 18.3102 18.8187 18.2083 18.521 18.2115C18.3507 18.2098 18.1819 18.2437 18.0255 18.3111C17.8691 18.3785 17.7285 18.4778 17.6128 18.6028C17.4912 18.723 17.3951 18.8664 17.3299 19.0245C17.2648 19.1826 17.2321 19.3521 17.2337 19.5231V19.6647C17.2339 19.7116 17.2418 19.7581 17.2569 19.8025L19.4646 27.8759C19.5444 28.157 19.7043 28.4089 19.9248 28.6006C20.1363 28.8003 20.4164 28.9113 20.7073 28.9108H26.4826C26.6881 28.9137 26.8917 28.8708 27.0786 28.7853C27.2655 28.6997 27.431 28.5737 27.5632 28.4162C27.8443 28.1059 28 27.7022 28 27.2835C28 26.8648 27.8443 26.461 27.5632 26.1508C27.4327 25.9906 27.2678 25.8619 27.0807 25.7744C26.8936 25.6868 26.6892 25.6426 26.4826 25.645H26.437C26.4126 25.6479 26.3891 25.6558 26.368 25.6683L21.5614 26.0409C21.7437 25.8138 21.8945 25.5631 22.0095 25.2956C22.1297 25.0001 22.1883 24.6831 22.1818 24.3641C22.1947 23.9292 22.1195 23.496 21.9607 23.0909C21.8019 22.6857 21.5628 22.3169 21.2578 22.0065C20.5527 21.2094 20.0481 20.2555 19.786 19.2241ZM18.8424 14.7621C18.8293 14.6517 18.7927 14.5452 18.7352 14.45C18.6777 14.3547 18.6006 14.2728 18.5089 14.2098C18.3258 14.0746 18.104 14.0021 17.8764 14.003H17.6463C17.5572 13.9944 17.4673 14.0044 17.3822 14.0321C17.2971 14.0598 17.2187 14.1047 17.1517 14.1641C17.0403 14.3081 16.9871 14.4886 17.0026 14.6699V16.4398C17.0026 16.6851 17.0533 16.9277 17.1517 17.1524C17.1867 17.255 17.2536 17.3437 17.3426 17.4057C17.4315 17.4677 17.5379 17.4997 17.6463 17.4971H18.29C18.403 17.5006 18.5152 17.4771 18.6173 17.4284C18.7194 17.3798 18.8083 17.3076 18.8768 17.2176C18.9484 17.128 19.0007 17.0246 19.0304 16.9138C19.06 16.803 19.0664 16.6873 19.0492 16.5739L18.8424 14.7621Z" fill="currentColor"/>
        </g>
    </g>
</svg>
