<svg xmlns="http://www.w3.org/2000/svg" viewBox="0 0 32 32" width="32" height="32" fill="none">
  <path fill-rule="evenodd" clip-rule="evenodd" d="M8.26112 17.7355C8.49353 17.7773 8.73296 17.7992 8.97752 17.7992C9.40811 17.7992 9.82276 17.7315 10.2112 17.6062C8.30686 17.3076 6.85072 15.6715 6.85072 13.6979C6.85072 13.6673 6.85107 13.6368 6.85177 13.6064C7.41565 13.9241 8.06524 14.1094 8.75757 14.1196C7.61379 13.424 6.85072 12.1721 6.85072 10.7435C6.85072 10.0017 7.05642 9.30759 7.4143 8.71426C9.44217 11.1209 12.4172 12.7146 15.7708 12.9311C15.7093 12.6512 15.677 12.3606 15.677 12.0624C15.677 9.81881 17.5099 8 19.7711 8C20.9523 8 22.0168 8.49643 22.764 9.29051C23.6912 9.14436 24.553 8.80327 25.3053 8.3109C25.0278 9.25103 24.3962 10.0411 23.5636 10.5293C24.3786 10.454 25.1487 10.2344 25.8563 9.90467C25.3494 10.7279 24.6684 11.4341 23.8642 11.973C23.8648 12.0027 23.8652 12.0325 23.8652 12.0624C23.8652 12.1417 23.8634 12.449 23.8634 12.525C23.8634 18.8625 18.6858 24 12.2989 24C9.97559 24 7.81228 23.3202 6 22.15C6.32212 22.1871 6.64978 22.2062 6.98192 22.2062C8.90586 22.2062 10.6792 21.5665 12.0977 20.4897C10.2816 20.4899 8.77405 19.3329 8.26112 17.7355Z" fill="currentColor"/>
</svg>
