<svg xmlns="http://www.w3.org/2000/svg" xmlns:xlink="http://www.w3.org/1999/xlink" width="44" height="44" viewBox="0 0 44 44">
<g id="Wheels">
        <g id="Group" opacity="0.5">
            <path id="Path 297" d="M22.0311 14.0025C20.9705 13.9755 19.9156 14.1667 18.9315 14.5646C17.9473 14.9624 17.0548 15.5583 16.3087 16.3156C15.562 17.044 14.972 17.9183 14.5751 18.8846C14.1782 19.8509 13.9829 20.8886 14.0012 21.9337C13.9861 22.9883 14.1827 24.0352 14.5791 25.012C14.9756 25.9888 15.5638 26.8755 16.3087 27.6192C17.8142 29.138 19.8588 29.9944 21.993 30C24.1273 30.0056 26.1764 29.16 27.6897 27.6492C28.4392 26.9031 29.0302 26.0121 29.4268 25.0301C29.8234 24.0482 30.0175 22.9956 29.9973 21.9362C30.0258 20.8744 29.8292 19.8186 29.4204 18.8389C29.0116 17.8592 28.3999 16.978 27.6261 16.2537C26.887 15.5279 26.0128 14.9555 25.0533 14.5691C24.0938 14.1828 23.0678 13.9901 22.0341 14.002L22.0311 14.0025ZM22.9797 15.9706C23.8861 16.1455 24.7446 16.5137 25.4972 17.0502C26.2497 17.5868 26.8789 18.2792 27.342 19.0808C27.0046 19.3684 26.6194 19.5941 26.204 19.7474C25.6551 19.9798 24.9595 20.2443 24.1173 20.541C24.0003 20.2567 23.8021 20.0136 23.5477 19.8423C23.2877 19.6691 23.0125 19.5202 22.7254 19.3973C22.7254 18.5517 22.7361 17.8428 22.7573 17.2705C22.7555 16.8272 22.8312 16.387 22.9812 15.9701L22.9797 15.9706ZM20.893 15.9706C21.0501 16.3901 21.1563 16.827 21.2093 17.272C21.3038 18.0204 21.346 18.7745 21.3357 19.5288C21.0385 19.6143 20.7598 19.7543 20.5134 19.9418C20.2548 20.1386 20.0397 20.3872 19.8817 20.6719C19.1919 20.4381 18.5168 20.1624 17.8602 19.8464C17.3549 19.5923 16.9543 19.4017 16.6585 19.2746C17.0725 18.434 17.6663 17.6957 18.3974 17.1122C19.122 16.526 19.9826 16.1336 20.899 15.9716L20.893 15.9706ZM17.6702 26.188C17.1096 25.6394 16.6682 24.9801 16.3739 24.2518C16.0922 23.5127 15.9528 22.7265 15.963 21.9352V21.0468C16.4096 21.0593 16.8542 21.1124 17.2912 21.2056C18.0395 21.3647 18.7784 21.5659 19.5042 21.8083V21.9352C19.5074 22.2073 19.5611 22.4763 19.6624 22.7287C19.7611 22.9918 19.8999 23.2379 20.0738 23.4583C19.4838 24.2623 18.999 24.8761 18.6193 25.2995C18.3382 25.6314 18.0199 25.9295 17.6707 26.188H17.6702ZM22.0326 27.9637C21.5538 27.9665 21.0764 27.9132 20.61 27.8049C20.1669 27.6987 19.7348 27.5824 19.3137 27.4559C19.4516 27.0374 19.632 26.6343 19.8519 26.2529C20.1255 25.7455 20.5155 25.1108 21.0218 24.3487C21.1906 24.3909 21.3377 24.4223 21.4645 24.4426C21.6112 24.465 21.7594 24.4757 21.9078 24.4746C22.0453 24.4733 22.1825 24.4626 22.3186 24.4426C22.4581 24.4236 22.5956 24.3922 22.7295 24.3487C23.2349 25.1105 23.6248 25.7452 23.8994 26.2529C24.1186 26.6359 24.2987 27.0401 24.4372 27.4594C24.1068 27.6843 23.7273 27.826 23.3309 27.8724C22.9013 27.9356 22.4678 27.9683 22.0336 27.9703L22.0326 27.9637ZM26.395 26.188C26.0148 25.9454 25.674 25.6458 25.3842 25.2995C24.8825 24.7169 24.4179 24.1029 23.9934 23.4613C24.1989 23.2586 24.3511 23.0079 24.4367 22.7318C24.5178 22.475 24.5604 22.2076 24.563 21.9382V21.8114C25.2532 21.5576 25.9613 21.3562 26.6815 21.2087C27.129 21.1158 27.5837 21.0627 28.0405 21.0498V21.9403C28.05 22.7377 27.8883 23.5278 27.5664 24.2569C27.2547 24.9459 26.862 25.5948 26.3965 26.19L26.395 26.188Z" fill="#666666"/>
        </g>
    </g>
</svg>
