<svg xmlns="http://www.w3.org/2000/svg" viewBox="0 0 32 32" width="32" height="32" fill="none">
  <clipPath id="youtube-clip">
    <rect width="20" height="14.0909" fill="currentColor" transform="translate(6.14453 8.95459)"/>
  </clipPath>
  <path fill-rule="evenodd" clip-rule="evenodd" d="M23.9584 9.37522C24.8189 9.60672 25.4966 10.2888 25.7266 11.1549C26.1445 12.7247 26.1445 16 26.1445 16C26.1445 16 26.1445 19.2754 25.7266 20.8452C25.4966 21.7113 24.8189 22.3934 23.9584 22.6249C22.3987 23.0455 16.1445 23.0455 16.1445 23.0455C16.1445 23.0455 9.89036 23.0455 8.33066 22.6249C7.47016 22.3934 6.79247 21.7113 6.56246 20.8452C6.14453 19.2754 6.14453 16 6.14453 16C6.14453 16 6.14453 12.7247 6.56246 11.1549C6.79247 10.2888 7.47016 9.60672 8.33066 9.37522C9.89036 8.95459 16.1445 8.95459 16.1445 8.95459C16.1445 8.95459 22.3987 8.95459 23.9584 9.37522ZM19.3264 16.0001L14.0991 18.9738V13.0263L19.3264 16.0001Z" fill="currentColor" clip-path="url(#youtube-clip)"/>
</svg>
